/* XPM */
static char *Texture_128x128_141707242004[] = {
/* columns rows colors chars-per-pixel */
"128 128 92 1 ",
"  c #BF0FA4",
". c #BE11A2",
"X c #BE1BA4",
"o c #BD21A3",
"O c #C10FA6",
"+ c #C214A6",
"@ c #C917A7",
"# c #C31CA6",
"$ c #CB1DA6",
"% c #C616A9",
"& c #CB15AB",
"* c #C61CA9",
"= c #CC1CAB",
"- c #D11EA7",
"; c #D117AF",
": c #D31DAC",
"> c #D91EAE",
", c #D416B2",
"< c #D917B6",
"1 c #D51CB1",
"2 c #DC1DB4",
"3 c #DE17B9",
"4 c #DE1BB9",
"5 c #E11EB6",
"6 c #E217BD",
"7 c #E41CBC",
"8 c #EA1FBE",
"9 c #C223A6",
"0 c #CB24A6",
"q c #C22BA6",
"w c #CD2AA6",
"e c #C523A8",
"r c #CB23AB",
"t c #C529A8",
"y c #CC2BA9",
"u c #D325A6",
"i c #D926A7",
"p c #D42CA6",
"a c #DA2DA6",
"s c #D422AC",
"d c #DB24AC",
"f c #D32DAA",
"g c #DB2CAB",
"h c #C730A6",
"j c #CD31A6",
"k c #CF30A8",
"l c #D532A6",
"z c #DB33A6",
"x c #DF38A7",
"c c #D630AA",
"v c #DD31AA",
"b c #CF28B0",
"n c #D522B1",
"m c #DD22B2",
"M c #D128B1",
"N c #DD2AB1",
"B c #DD23B9",
"V c #E12FA7",
"C c #E126AE",
"Z c #E32CAB",
"A c #E92EAE",
"S c #E335A7",
"D c #E936A7",
"F c #E438A7",
"G c #EB39A7",
"H c #E434A9",
"J c #EB35AB",
"K c #E638A8",
"L c #ED39A9",
"P c #F03CA7",
"I c #F136AE",
"U c #F33BAC",
"Y c #F83DAF",
"T c #E323B3",
"R c #E926B6",
"E c #E32BB3",
"W c #EC2BB4",
"Q c #E323B9",
"! c #ED23BB",
"~ c #E629B8",
"^ c #EF29B8",
"/ c #F12DB6",
"( c #F027BA",
") c #F029B9",
"_ c #E530B0",
"` c #EE31B1",
"' c #F334B2",
"] c #F639B1",
"[ c #F93CB1",
"{ c #E71CC1",
"} c #EB1EC1",
"| c #EE20C0",
/* pixels */
"SxxxzxxxxxFFFFDSSDSFFzFFFFFFFSSzxxzzzllaljpljlzalzzlalazzzpzazlaalazzzzFFFFxFFFxxxxxxxxxxxxxxxxxxxxxYYxUGGFGFFGFGGGGGGGFGGFFFFxF",
"xxxxxxxzxSSFFFSDFFFSFFzFFFzFzFFzxzzzlzzljpjppllzzllazzzlpzzaaazazzzzlzSFFzxFxxxxxxxxkxxhhxxhxkkxxxxUxxxxGGGGFGGGGGGGGGGGFGFFFFxx",
"xxxzlxxxxxSSFFSSSSSFFzSSzFFFFzzzxzxzlzljjppljplaazazlzazzpzpazazazazxFxFxFxxxxzxxhhxxxhxxxxxxxkxxx]xxPUxGFFGGFGFGGGGGGFGFFFFxxxx",
"lxlzxxxxSxxFFSSFFSzFSSzSzzFFzFzFzzlzlljppjpjplpllllzzazlzpzzzzzlxxzxFzxxzFzxzxzzxxxxhxxxhhxhkxxxxxxxPxxUGFGGFGGGFGGGGGFFFFxFxxxx",
"xxlxllxxzxFFSFSSSSSzSSzSFzzzzzzFllzlkkkkljjpplllzpzpazpzzzzzzzzlxxxxxxxxxxxxxxlxhxhxkhhhxxkxxxxxxFFFxxPxFGFFGGGDGGFGGGFFFxxxxxlx",
"jjxxxlxlxxzxFSzzSSzSSzzSzzzzzzzzlxlljkkkjplplppllzzzlzzzlzzzzzzzzxzxxzzxlxllllllhhhhhhhhkhxkxhxxxxFFxPxPDGFGFFGFGFGFFFFxxxxxlxxl",
"hohlxlxxxzxSzSSVSaSSzSaazzzlllllclckjkkkppjpjlpplazzzapzlllzzzxxxzxxxxxxlxxlljjjhqqhhhqqhxxxxxxxxFFFFFFFDFFFFFDDGGFFFFFxxxxllllj",
"hhohllllxzzzSFSSSSSaVzzSzzllllllcchhhkhMjwpjppjlllpzllzzzzxzxxxxlzzzllllllllhhhhqqqqhhqhhhhxkxxxxFxxUxPFGFFFFFFFGFDFFzxzzxxlxhhh",
"oohhhxxxlxxlxxSSSzSzVVzzzzllplpjhohhbohhjkjkkkkkpllzzzzxxxzxxzxlxlllllllljhqqqqqqqqqqqqqhklxzzxxxxKKHKKKKKKKKKKKGFFxxzxxxllljqqq",
"hhqqhxllxxlxzSSzaSaVzzgazaaalpjjbqhhhkhbjkklkckklllzlzzllllllzlllxlllljhhhqqqqqqqoqqqqqqoklzzzzxxKxKKKKJKJKKKHKKSFxxxxzzxljhhqqq",
"qqqqhjjlxxlxSzVVSaVzaagvaapapppjhhobohqqhjkkkkbhllzllllllllllllllljhhqqqhqqqqqqqqqqqqqqqhllzzxzSx_KKKHHKKKJKKKKHFFxxzzzzljhqqqqq",
"qqqqojxxllxxzzzzzSzazVgaaapppppooboohhqqohohhjqbjlllllllllllljhhhhqqqqqqohqqqoqqqqqqqqqqhllzlzzxxxKxHKHKKJHKJKHFFzxzzllzjhqqqqqq",
"oqqqqhxlllzzzzzzzazaaaaagiffpp0oooboboooqqqoqqqqhhhhhhhhhhhqhqqqqqqqqqqqqqqqqqoqhqqqohohjxcxzzSSx_FFHFHKHJJJHHKKSzzzlzljqqqqoqqq",
"qqqqhhjxxlzzzxzzzzzazaaggiifu000booboobbqqtteqqqqqhqqqhqhhqqqqqqqqoqoq9qoooqoqqohoqqoohhcccczSxxxxxFHHHHHHHHHJ_KzSxzzlhqqqoqqooq",
"oqoqohjjlzzzzzzzzzaapaaiffsureo9bXXeboeooeotqoqqqqohqqqqoqqqoqqqoqoq99o0qoqooqoqohhohhojccxxzVSS_xK_HHHHKHHHHH_HHHzzlqoqqqqqoqqq",
"qqhqhhjxlllzzzlzaaaapgaifufur9$$o==**X**eeotq*oqoqqqo0owqqoooqooooqo90ooooooqooqohohhoqkccxvxVVVK__xvHHHHHHHHHHvvaSzjqqqqooqqoqo",
"qqoqqjlpllzllzazlalapaffiurre**e*****%***X***o*e9e99eeeoeooeeoeX99#X9X9#9X9999oqqtohookcpllzSzSDHHHH_HHHHHHHvv_vvvvybooooooooooo",
"9qqqqwlllzpzazlzalpapufisfb==e=***&*%%*%***XX*o*#X#eXXe*X**oX*XX#XX**XeX#9#oeootqohohhkclllzzVVS___HHHHH_HvH_vvvvcybbbboboXbboob",
"oqqqqwlllazlllzpalpppppufuee=e***%%%%%%%%+%**+*XX%%X***X*X%XX%X%#X#XXXXX#o9ooeooqohookkklllzzzzSH_J__HH_Hv_vvvvvcqtbbobXoboooooo",
"#qqqolpllllpzplplplpwpppsrrr*=&=&*%%%%%%%%*+%X%+%XX%%X%XX%X%X X%X#+#**X*X#99eoqttoohkkjxalalalzVH______HH_vvvvcktbtbbebbooXooobo",
"o9oqqpllllpalpllppppwppp=bbor=*;%%&&&&& %%%+*++*%X+%&XX %X% X++XX%X&XX*X9#99oqoqqoowkklcllaazaaavvHE____NHvNNcMbbbrbe*b&b*o*bXob",
"q9o9qppwplplplpplplwpww0oXb=***&&%%% X&&%%%%+%%%X%++ %%% %%X%X %XXXX*XXeo9o90oqqqqhlllkcplllllzlzavHH____NNvMbbtbtrr=b=b,**XXXXX",
"99tqtpppppplppplwplpwpq0bbb&===&&%&%&& &%%%%*+%X%%%XX%   % X++*.%X*XX*Xeo9o9q9qoqhpwlwlcappalalapzaaN___N__vbbbbrbrb==b**,XX*ooo",
"99etppppplpplppwpwwwwwq0bXbo===&&&%%&%&&%%%+%%%+%+++ X&X&X %+ X*X%X*XXeo999q9qqoywkwpllklpllpalplacpccNN__NbbbbXrr=*=,;&*,,*XXXb",
"99etMNggcgpwlppppwpwyttebX*b&*b&&& &&X&X%%%@*%+@+%+*+.+*+++++#X+XXXe#9o9o99oqqqwwwpkppppplpppppppplpppagBMMMMMbbbb=&*;=,b,b X*o*",
"o9tegNNNNggpppppwpwwttetebbe;&&&&&&&&&&X%*%%+%*+%++*+*#+#+#X#X##&XeXo9999qqqoqwpkpwpppppppppppppppppjppuMMMBBM1b&1&&;;&=*;,&Xobo",
"eottuNN_E_Nagfpuppwtererb*==&&&b&b&&=,X;*@%*******+.*++*#+##X#XoeXoo999qq9q9owwpwpppwppppppppppppppppwwqoMbBM,M1,1b,;;=;,,1b*ooo",
"oteefgN~~EEEggffpw0ttere*bb;bb&&*&;&=X;X@********X**#X*X##X#*X9#oeoeqo9o9oqtwwpwpwpjppwwwppppwpppwww0q9qoXob1M<<,,,,&;;;b&b;Bb*o",
"9o90ugMNE~~EENNffyrrebrr*b;b&=b&===b=**==*=******##*##9###9o9#9oeootot99q900pwwwwwpwupwppwpujupwwjpq9oq9boXXX%&3<,,,,,;;,==,b=oo",
"999wfugNN~~~~~NNsrsyrrr=b===&1&b=======**e*ee*e*e#e###9##99#oo99oetotoqeh0ww0wwuwuwpwwpwwpuwwjppw09999o9oXX %  OX,,,,,,;=,nb1boo",
"9o9wuufdN~~~~~NMMMMrb=b=;===&b&1=====r*r*eer*ee#e##e*99##o9X99o9eooooott0wwwppuppupwu0puwwwwwwwuo099o999X*XX  OO   ,<,,,1n,MMbMo",
"999wyufsdNN~~BBNnnnn1b1n==,b,&b=;b=r==r=r=eeeeeeeee9999o99999999oeeebtyrw0ww0pupigigpwwwwuuwwwoo9oo999X#XX   %O      %,<n,,M1BBo",
"oe9yuuusiNN~BBBNnnnnn11:1:n=s=:=n=b==*rre=eeeeeeee9e99eoetoe9o9999000w00000w0wuusdNT~Nfuwtt0e99q9o9X9X##+++.. OOOOOO ++%11nnnnNo",
"eoerw0wssdmBnBBBBnnBn1n1:1:11=n==n==b=b*rerrreee9ee999eoeoto9q9qq0q00h00ww00000uufdNBQ~Ndu099o9oo09X@X#X@++. .OOO+OO++++%*1nnnne",
"o9et0u0ufsnnnBBBBmB1111111nsn>1r=bnbb=rrrereteeete9eq99toeotq000w00h000000w0000wwussdNQQQBnr99X9oo#XXX+++++++.OOOO+O++++XX*ernb9",
"q900w00u0ssMnnBBBB4n1111s1s11sn:1n:==nrrbeerretreeteeet9teyt00qh0000h00000000wwt00wussnmBBBn>=$#X#@X@++++.+.  .OO+OO ++XX*Xooo99",
"#990w000rrrnnnB4B44411111n>1snnsrnsnsrMrrrrybeebrtetwt0wyetw0000qh0000hw0000eeterw00r*0nnBBB52:=#+++.++++.++.. +OO+++++#X*#o*oeo",
"9999999900=snnn44544422n21n1n1s1=n1rsnsrsysreyry0rw0wt0try0tt0q000h00q0q0t0tbre0e99#9$=rn144657<:+...+++@.+++. OO+OO++#.*X##oeXe",
"999#$90$$0=rb14224444421nnnnn1nnnrnnnrssfruyyrryrwtrr00tt0tt00t0q00qq0q0t0t0etoo999#$9$*==1166666; ...+.++@.+   +OO@@@@@###9eXeo",
"#99999$99$0==n12,4444B22122nnsnrsnnrrnrbMrrrrryrwt00r00tet00ttq00q00000q09q9oobo#99999$$===1<>6666;+.....O +.  +O@&&&@@$*e*9#9*e",
"#999#9o00$u=:::1<233244Bn1mn1nnsrnrn=brnrrrrrrerr0rre0er00ee0e0909909q99toeoeoobo99#9#$#$@@&;,33666&OOO ......+O%%;,;;=&=*$$99$9",
"90#$0099$0$0::1122234B5242n1nnnnsnnnnnrrrrrrerreee9eeee9qee999999o99o99ooeottoeo#99####$@X@--;,<6666 OOOOO@.OOO&;,,,,1====$r$#9$",
"0#999#$$0$0$$::,12242442m42nmnnsnnnrrnrnrrrrreeeeeee999##9#99ooq99o9oq99eooeoeoo99#9####@@$@-;;,<566,OOOOO OOOO;,<<<41111===$$$9",
"$0$9$0$#$0$$-::>1222554B4mmm1s1ss:s1nrrnnr=r*rr*e#$e9$#9#o9o#9#99o99##qooXeoeoe*####$*#*$X@@@-;;,<568;OOO+O+O&;,<334444211s=*0$$",
"0$$0$#000$$-$:::>1224554m2Bm2n>nnnsnrn=::r=0r0*r$#9#9$##9##9X$ooXeoe9#9Xo*oe#9#9X#####$#@#$$$@-@;><366 O++O++&;<<366{6B4221ss=0=",
"$0$0000$$0$$---:>12m22B5B2m2mmn>1sn:n:srs=0=**=*$$**##*#####X@##XX*X#Xo#Xe*XXX###9#$##9#0##$$-@--;>>56< O++O@&;<336{{{{{4B22>s:0",
"u$$0$$$0$$$$-$-::>m2m55B4m4mm1s2n>>sss=s=r=0=0*$*#*##*###*#X@XXX*X%XX%##%XX**X##9#9#9#$#$##$$@$$-;;>>56;++++O&;<36{{{}B|Q4B22>>s",
"--u$u0$$$uu$$--:s:>m2m2BT5Bmm2mn2ns11:s::===$=*$$$#**##+#+#+XX@$X%XX%XX*XX*XXe#9####$#9$o$$$#$$$---;>355@+++@;;,<{{{}{{{|{42mn>:",
":su--$0-0-$$$uu--:>>mmmTm2Bmm22dsd>>ss:::==:$$@*$*$####@XX$$..#. X% ##..*X*XXX###0#$o$$9$$#00$$$----;><52.+.@@;,<6{{}}}}}{75Qm2n",
">>:----$$-u--u-u-id>s2m2QmTmmmmnm1n>::s::==$=$$$$*#@@#X@$..X.$.$%X%X.###X*XX%*###o#$$99#090$o$0$$---->>C41+#@@-;B4{{{}}}}}{754m2",
">>:----u-0$u$uu$u>dsmmmmmTm5mmmmdd1ss>:s:0===$$$*##@X@@XX$$XXX$.X X%+++#X*X**##9$$o$00900$9$$00$$$--->>>2T$+++$;<46{}}}}}}{77Q22",
"2dd>-u---0u$u$uusu:ddmmmmmTmTmmm2smssss=:-::$==$$@@#@$##X$..$..X%%X #++++++*##**o$$oo9$09$009$0$0$----->22>+*#@;14BB}}}}}}}{!75T",
"5>C>>u-uu-uu0uuus-ussdmmmTmNTmmmmmdnns:s=:00:$*$$##$##X$XX$$$..#X%#.#++####@#**#o$$0$o00$0090$000$$wu-->d>5:+*$-:25778}}}}}}777T",
"555>d>i--uu-uuuuiudddmmmmmmTmmmdddndd>sss::$$=0$$$$##$$X$XXXoo$X#X+++X#+@#@@*$$$$0$$$0$$00$0000$-0$-$-u->ddm##*@=145788}|||}}!Q7",
"55C>>i>u-u-uuuuuuusdsddmmTmTmNdmmsmsdss:s0=s0==$$$$#$$X$$X$.##o##*###+##@$$@@$@$$$$$0$$0$09$$000w$w$-u-uu>>Td*#$=:22788}}|||8888",
"8555C>i>uuuuuuuauuusddddmCmmmTTmdmdmssss:us$:0$=$##$#X$XX$X$X##X#X.#+*@@@$@@-$$$$$$$0$$$$0000000$w$u0uu-id>dT$#$=>>45788|}!88888",
"!R5TmdddiuuuuuuuiiuiidddmmmmTmmNNmsdnsssss$s=0$00#$#$#####o$X###$XXXO@@@@---;------@--@-$00000u0wu00u0u-ui>>C>*@-->55878}||||888",
"!55TTC>ddiiiipuuuuuusddddmdTdTmdmdmddddssss$:0$$$$#$##$####X#X##X.@@@@@--;;;;;;;;-------0-0-0000w$u0wuuuuuuiCCu$--->>T588}8|8|8(",
"!8!RTCCd>iiuuuupuuiuidddddmNmNNdNmdsssiss0u==$=$$$$$#$######X@#XX@@.@@@;;;;>;>>>;;;-------00-00000u0u00uuuuiiiC$$-->>5588!!||((8",
"!(5RRTCCdiiiiuiuiuudusdddmdCdTmTddmdddssss:uu=0$$$0#$##*$##.++++X.XX@@@;;;><<<>,>>>>--------0uu0uw0u0uwuuuui>C>>$--->5T!88!8|||(",
"!!RRRTCCCiiiiuiuuuauiiiddmmCmdmdmdmsgsdsss0:0==0#$*$###+.#.X$..#@@.@X@--;,>><<<53>>>>>>---u---u0wuu0u0uupuuiiCdC$0-->CC588!88(|(",
"!!!RRTTCCCViiiuuuiuuuiisdddNdTmCdNddddsss-s::0=0$$$#*#**##$XX@#+X.XX@$@@-;<<5>5<>33>>>>>uu-u-u0uu0uwwuuwuuuuiiiCi$-u>>>TT8!!(|(|",
"(!^RRTTTCCiiiiiaaauiiiiddddCNddmmNddsdsssss000==9$$$$#####.#X#+#X+@+.@@@;>,><5<5>55>>>>>i--u-u-00u0uwuuwuuuuiidCCu0ui->TT8!!|(|(",
"!(!^^RRZCCCiiaiuuuiuuiiidddddTNdddmdmfsdus0s0:0*0$9*##e###$#X######X@@@-@;,>>><5355555>>>i-iuuuuuuuuuwuuuuuuuiiidi$ui>CCTR!(8(|(",
"()!^^RWCZCVCaiaiuiuiuiiiigdddNNddmdgddfssrsrrurr0*09*e$####XX##X##X##$#@$-;;55<555555>5>>C>>-i--i-uuu0upuuuuuiiiVii--i>C5T!R!!!^",
"(!)(^WRETZCigiiiapipisiiiddNdddmggNmffmsffssrrrrr9re9999e99#99X#X##X##**@$-;;>>5566555T5T>C>>iiiiiuuupuuwpupuaiiiVi-uiiCCRRR!^!^",
"((!WR^EREZCCViiiauuiaufigggdddNgmgngmffdnffrfrrrrreeee#99o999XX9#X#o###$$$--;>><>55555R55>C>i>ii-iuupupupuupuauiiCVuuuiiCTRR!^^(",
"()))WRWWWCZCdVViaaauaiaiiidgdgdgsNgmfNMyfssfyryrrtteeeqqee999999o99##9##$$--->>>55555555TT>C>C>-iiuuuuupupuuauuaiVViuuiidCTRR!^^",
")))W^WWRRAZCgiViiiuaapiugiggggdmgNfmMgfNffsyyyryyyetete0e9qe9o9999#99#$$#$-u->>>>55555TTT5TC>CCiiiuiuuupuaupuupiiVZZuiiiZCTWR^^^",
"))))/^^WWZTZCggiaaauuaiasigggmNgNgNgNfNyMfMyfyyytywttrttqet990q999qo999$00$$--->>TT5R558TTTT>CCiiiiiuppuuppuapaiiiVZiuiiCCCTWR^^",
"))))^WWWRAAZZZCiaiaaauugiiigggMffNfNNfMffMffyyfyywwywwtwtetq0qq0tee09909#0#$--->>>5TTT555TTTTCC>iiiiuauapupupupiiVVViuuaiZCWWRR/",
"//)///WWAWRZZVaVaaauipaiaifggggNNgNgNccNcffffffyfuwyywwwtytyqt0tette0990$0$--i--->>>5TTTT>>-TCTCiiiiiuiuuauauaipiiiVViuaiCCCAWR/",
")//)///WWWAZZdVaaiaaaauagpiggggggNNNccNcvcNbcfkffwfwwwwwwwywttttq00qq0w00000$-u--i>>>TTT=9#$$sCCCiiiiiiippupipiiiiVVVapiiVZZRWWW",
"W//////WWWAAAZCgVaiaiaaaaiaggfgNcfvcNcccMcccfcffcfycfwwywkwwwwwwwqw00woo0900w0-u->CCCTTT$#$$0$-dCCCViViiiipipiapaiVVVVupiiCZZWW^",
"///////WWJAEZZgVVViaaapapaggggggNvNNNvNvNccccfffwcwwwckwwwwwwwwwwwqwwww0q000000u-i-C>CTT$#$9$00uCCCiiiiiipipppipiaaVVAaiaiVCZWWW",
"/////'/'`WWJHAZgaaaaaapapgppfgNvvNvvvvNccvcNcfcffffwfwfwwwwpwwwwwwww0w0w000hu00ui-iiC>CT$9$$0000iZZZViViiaiiipaaaiVVVVaiiVVZZZWW",
"///'/'//W`WEAZZVVaaVaapaaaagvgggv_vvN_vcvMvccffccwcwwwfwwwwwwwwwwwwwwwww0ww0w00uuuu-iCCC0$000u00-uZZZVCiiaaaippipaaVVDVaiVVCWZWW",
"`///'/W'````JAZZVVaaaaapplggggvvvNv_vvNvvccccfcfyfwfwkwwwwwwpwwwwwwwww0www0w0wwuuuuii>CCs00u0uuu$uuVZZVViaiaiaiiaiaVVVViiiVVZAAW",
"/''/'/'''WWJAAVVVVazaaaaaggvgvHgNvvNvvvvvcMcffcycwyffywwwwwwwwwwwpwpwpwwwww0wu0uwuuii>CCd00u0upuiuwaZZVVzaaiauapaaaVVDDaiVVVAAA/",
"'W/'/''/```WHAAVZazzaaaaapcgavgvv_v_Nv_cvcccfcycyfywwwkwwwwwwjwpwwwwwwwwwwwww0wwuuiuiCiCC0u0uuuuuwupVZVVVVaaaaaaaaaaVVVVaiVVVAAA",
"W/''/'//'/`AJAAHVgHSaaaaaavavgHgvvv__vcvccccckkbyywyywwwwwwwwwwwwwwjpwwpwwwwwwuwuuuuiiaVZuuwuuuuuuupuAVSZVVaauaaaaaVVVDJiaaVZAAA",
"J''//['['''AWJHZHZgazazazaavavgHv_vvvvNccNkMMkbkyyywwtt0twwth0wjwpwpwpjwpwpwwwwuwwupiiiVZiuuupipaapupiAVSaSVvaaaaaaSSVVVaVVVVAAI",
"J/''/''/''''WJAHVVaSaazzgzvagvHgvvv_vNvvccckbkhkwywwyttwt0wt0hwwwwjwjwpwjpwppwwpppuiiiiiZCpuupiuuaauppVAVVVVSaiaiaSaVSVDVaaVDAAA",
"`I/'/['[''IAJ`HAHVHgzVaazazvHvgv__vvv_ccvMcMkkbhryytttwttwtwhwwwwwpwppwpwwpwwppwuwpuiiiVVVpuuuaiuaauaaaAVSSVaSHaaSaSVSVASaHaVVAI",
"I/''''/''''```HHHAgaVaazazSgzHgHvvvvvvvcccbkkktbyrtttttttwtww0wwwwwpwpwpppwwpwwppuppiiaaZZiuiiiaaaaiaaaSAVDVaHzaSzSVSVVDDaaVVAJJ",
"II''''[/''II`JJ`HVHHzSvazVagSgHvvv_vvvcMbckkbthtyttt0t0tt00tw0wwwwwwwpjwjwppwppwwwpiaaiVVZVupaaiaaaaaaaaDVDVVSVSaSaSVSDVDaVVVVJA",
"A`''''[[']I```H`AHHVHaaHVaSSggHgN_vvvcccckkbkybywttqttt00ttwwww0wwpwjwpwwpppppwppppuuaaVVDVpaaaaVaVaaaaiJVVDSVaSSSzSSVHDDVaVVDAJ",
"III'['[']''IIJ`HHHVHaSSazSgzSvvHvvvvvNNcckykbyytttt0q0ttte0tt0wtwpwwpwppppwjpwppwpwpapiVVVVipazaiaVaaazaVADVVSSVSaSazSSVDVVDVZJJ",
"'`]']][[]'''I_I_HHAVvHaSaSzVvvvv_v_Mvcccbcbkbyyyytttett0t000t0w0wwwppwppwwjppjpwpppppiaSVVDaaaaaVVaSaazaaJDVDVVSSaaSSVVDDVSVVVJA",
"J']]][[|]]]'IIIJ`HHHSgHzHaHzHvHHcvxxvNcMMkkkhbytytttte0ttttww0wwwwpwwpwpppjppppppppiapizSVDaaaaVViVVVzzVaDDVDSHSSSSSSSSVJHzVSDDI",
"I']']]]]]]]']__LJHAHHHaVzSgSvvvv_xvNvMcccMkbhyyyytttt0t00tttwwwww0wppwpppjpppppppppppaiSDVDVzazVVaVVVzVzSVJVVVSVSaSVVSDDDJVVDVVI",
"JI'']][]]]]]]IIIJJHHSVSSSVSzvHFvvvvvvxcckkkkyyyyytyttwtt0w00w0wwppwwwpwwppppjppppppppaaaVVVVaaVzVSVVVVVVaVJDDSSSSSSVSSVSVJzSVDJI",
"IL]][[][]]]]III_JHJHHVSVaaHvvvvvvxvvvcNcckbkkyytytytwt0wtwwwww0wwpwppwppppppjppjppppaaaSVDDDizVVVVVVVVVSSaDDDSHVSVSSSSVDDJSVVDVJ",
"I''][[[]]]]]]IILJJHHHSHSSSVSvv_v_c_vvvcccckkbkyhyyywywttwwrwwwuppwpwpppwpppppppppppazpazVVDDzVzVVDSSVVVSaSJDVSDSSSSSSVDSDDSSDDJJ",
"U']][[[[]]]]]'IIJ`HJHHVHSVvS_x_vvxvvvcccckkbkycywwyyyw0ywwwwwpwpppppppppjpppppppppappazSDDVDaVVSSSDVDVSVSaDDJJDSSSVSSDVDDDSVDDJI",
"IU]][|[[[[]]]]]KJJJHHSHSzHHzxvxc_vvvvvvcMcccyckywfwwywwpyywuwppp0ppppppppppjplpppplpapaSSVDDVVSVVDVDVSSSSVVJDDSVSSSSSVDDDDVVDDLJ",
"IU]]Y[[[[[[]]]K]_]x_HHHSHSSgSSvHv_xvvvccccccwckcwwcwwwwfwfwwfpuppppppppplpppplplppplaazaVDDASVVHDSDVDVVDVSSDDDDSVSSSSSDDDJDSSDAL",
"IUY][[[[[[[]]]]]]x]KJHHHHVHzHvHvxxvvvvvcvccccccwccwwcwfwpwppwppppppppplppppppppppzpaaazSSSDDHSSSVDDVDDDSSSSJJDVDDSSDSSDSDJDSDDJJ",
"IU]Y[[[[[[[[]]xKU_xKHHHHSHaHHvvHK_vx_vvcxccccccccwclpplppfppppppapalapapppallplplpappzzSSDDDSSSSDDDDDDDVVSSJLDDDDSSSSDSSDDJVDDPJ",
"UI]][[[[[[[[]][]UU]_KHHHHSHSHSvHx_v_vvvxvccccccccpcflkpfppfpgpplaapapzplalplpppppplpaaSzSSDDJSSSDDDDDDDDDSSPDDDDSSDSSSDDDDDDDLJP",
"IYY[[[[[[[[[]U]]KKIKK_KHSHSSzHHvKvKvvxvxc_xccxccclplfpgllpppzplppalapalappplplalzzppazzSSSDJDSDDDDDDDDDDDVVDPDDDDSSDSSDDDLDVDDAP",
"IUY[[[[[[[[[]]]KK]UKKFHHHSHvHHHHv__x__vvcxvvccvclccglpplpgglpaaazazazaaplaapppppppzaazSSDDDJDDSDDDPDDDDDDVDPDDDDSDSDSDSDDPJDDDLI",
"UY[[[[[[[[[Y]]U]]]xKKK_FSSHHzHHH_xx_x_xvvvxcccccavpzzpplpzapavazazazzppzppplplpppplazaSSDDDPDDDGDDLDLLDDDDDIDDDDDDSSSSDDDLJDDDLI",
"IY[[[[[[[[[Y]U]]]K]_JJFFSHHHKHHvxx_x_x_vxvcvvxxczcllgzpvzpvzazvazazaaazazlpaalplaallaaSSDDDJJDDDDDDLDLDDDDDPIDDDDSSDDDDDDLDDDLPP",
"UIYY[[[[YY[Y]YUUILILJJKHHSSHHHHHK_xK_xxxzvvzzzzzlvlaalapzvazvzzzVzzzzzaaalapalpalaaaazSSDDGPLDDDPDPIDPADDDDDDDDDDDSDDDDDLLJDLLLI",
"YYYYYY[[YYY[]]]UIILJJHJHSHHKHHHHK__x_v_xHSvzzzzzzazzzzvzazazzzSSFzzVzaazalllaplaplllaSSFDDDLJDGDDPDPPDPPDDDIPDDLDDFSDDDDLDLDDLPP",
"YYYYYYYYY[[YUU]UULJLDKKKHSSHFHHHvKKvxxKxzzzvzzzzzazzzvzzSazzxxxSzzFVazzpallaaalpaaazaxSFDGLPGGDGDPPADPDPDDDPPLPDDFDDDDDDDPDDDPII",
"UYYYYYYYY[[[YYU]UULKJKJKSJDHHHHHKK_KK_x_zHSzzzzzzzzvaSazvzzHSFSxFFzFzzazaalaplallazazSDFDDLPGDGGPPPPIPPDLLDPPDDDFSSDSDDDDPDDDPPU",
"UYYYYYYYYYYUUUUUILLKJKJKKKKHHHKHF_FFHHFvHzvzzzzzzvzvzzzvzzxSSFFSSxFSzazzallpppzppzaaSSFDDGPPGGGGPPPPPDDPDDLPLLDDDDFFDDDPPDPDDIPI",
"]YYYYYYYYYYYUUUULILIKJJKKHHHHHKH_FF__FvHzFzzzzzzzzzzzzzzzSxFxFSSFFSzazzazaalzzplzazzSSFFDGLPGGGPPADIIPPDLDLPLLPDDDDDDDDDDPLDPPUI",
"YYYYYYYYYYYYYYUUUUIKKKJKKKFHHKHK_FFFvFFvzvzzzzzzzzvazvzSDSSSFFxSxSSSzaazallapzpapzazSDDFGLPPGGGPPPPPPPDPDDPJLDPDDDDFDDDDPIDDPPUU",
"UYUUYYYPYYPYUUUUKLILJJKJHHK_FFK_FF__FFzHxFzzzzzzzzzzSaSzSxxSxFHxxFSzzzzazalpzpzpzazxSFFDLLLLGLGPPDPPPDPDPDPPLDDDDDDDDDLPDPPDDPUU",
"PYYYUYPYUUUYUUUU]UKUJKJJFFJKKH_JSDHHzFxzzxzzzllzzzlvzvFxFzFFFxSFSzFzzazazppzpazplazHSKGGGGPPGGGPPGPPPGGGLDPLPGDGGGFDDGGDLPDPPLPY",
"YYPYYUYUUUUUUUUUUKKILKKKKKHHHKKKSDFHvHHzvzzzzzzzzzvzzzxxxFxzFFxSFxSzzzalazzpzppzazSSSSKGGGPLGGPGPPGPPPPPDLULIGGDFDGDGDGPLUDDLPPU",
"PYYYPPYPUUUUUUULUKKULJKKKHHKHKKKDDDFFFzxxzzzzzzzlzzvxxxxxzxFxxSxSSzzzaazlallpzzzvzxHFKGGGPPGPGGGGGPGGGGGPLPLGGGGGDFDDGDPLPDPLUUY",
"YPPYPUPPPUGUUULUUUUKKKJKHKJKHKK_SSxSHzHzzzzzzlzzzzzzxxxxFFFzFxxFSzzzzazzzpaaapzavzHFFGGGPGPGGGGGGPPGPGGGDPLPPGGGFGDGDGGDPLLLPPPP",
"PYPPPPPPPPPPPPULKUKUKKLJKJKHKKKHSSFSSSxazzzzzlzzlzzzxxzxxxFxSSxSxaazzazpalpzzzazxFFFFGGGGGLGGGGGGGGPGLGGGPLPGGGGDGGDGGGPPDDPPUPU",
"PPPPPPPGPGUPPPGUUKUKIKKKKHKKHJKHFFSVxzxxzzlzzzzlzzzzxzxxxzzxxSxzzzzzazalzazpzpazvxFFFGGGPGLKGFGGGGGGGGGGPPLLGGGLGDDFGGPGPPDPLPPU",
"PPPPPGGGPGKLGPPPKUKLKKKKKKJKKHHKFFSSzzFxzzzzllzllalzzxvFxxFxSzzazzazllazlapzzazzFFFFGGGGGGGKGGGGGGGGGGGDPLPPGGGKFDGGDGGPPDDPLPPY",
"PPPPPGPGGGLLGGGGUKKLKLKLKJHKKKJHSSSSSSzzzxzzzzzlzzzzzzxzxFzzzvzzazzaazlaalzzazzSFFGFGFxGGGGKFFFGFKGGGGGDPPPDGKGGDGDGGGPPPLPLPLPP",
"PxPxPPxPGGGGGGGPKLLKGGGKKKKKKHKHFFFSzzzzzlzzlzzzzzzzzazzzzzzazzzazlzazpzlzazzzSSFFFFGGGGGGGFFFGxGFGGGGGGPGPGGGKGGFGGGGGPPDGPPPPP",
"PPPPxPPxGGGGGGGGGLLLDKKKKKJHKHHKxSzSSzzzzzzzzzlazzzzzzzzzzazzzazzzaalpzlzazzazSSFFGFGFGGFFFFFFxGFFFGGFGGGPGGGGGGGGGGGGPPPGGPPGPG",
"PxPxFPxFGGGFGGGGLKKKKKGKJKKKHDKHSSzSzSzzzzzlzllzlzalzzzzzzzaazazlaalzpzalazazxSFGGGGFGxGFFxxxFxGFFFFGFPPPGGGGGGGFGGGGPPPGGGGLLGG",
"xPxPFFFFFFGFGGFGKLGLKKKGKKKKKHSDSSSzzzzzzzlazzzzzzzzzzzaazzzzzlaazzlazpzazzzSSFFxGxxxGGxFxxGxxxGFFFGFGGGGGGGGGGGGGGGGGGPGGPGLLGG",
"PFFFxFPxFFGFGFGGGKKGDFDDKKKKSKSSFzSSzzlzlzzlzzllzlzzzzlzzzzzzlzplzpzzpzazvzxFxFFxGxGGxxxFxxxxxxxxFFFFGGPGGGGGGGGFGGGGPPPGGGGLGGG",
"xFFFFFxxFFFGFGFGGKKKDFFFKKKFKSSSzFzzzzzzzllzlzzzzzazzazaazlaaazzzpzaalzzzzxFFFFFGxGxxxxxxxxxxxxxxxFFGGGGGGGGGGGGGFGGGGGGGGGGGGGG",
"FxFxxFxFFFFFFFGFFFKKFKKKDKKSFFSSFzzxzzzazzzllalzlzpzazzzzllzzllaazlaazvzzzxSFxSFGFGxxxxxlxxxxxxxxxFFFGGGGGGGFGGGGFGGPGPPFFGGxGxx",
"xFxxxxxxFFFFFFDFKSKSSFFSKSFFSSSFFxzzlzlzlllpzlalzazzlzzpzaaaalzpzpzzzzzzSSFxFFFFxxxxxxxxxxxxxxxxxxxFGGFGGGGGFGFGGGGPGPFPFPGGGGxG"
};
