/* XPM */
static char *_20b3d545fe34175c781193a1bdf10cfcuBoZUu49ruG2ozk[] = {
/* columns rows colors chars-per-pixel */
"64 64 187 2 ",
"   c #BC0F9F",
".  c #BE2B9D",
"X  c #BF0EA2",
"o  c #BF14A5",
"O  c #BF1DA5",
"+  c #BE23A5",
"@  c #BE2AA5",
"#  c #BF23AA",
"$  c #C12B9F",
"%  c #DB349D",
"&  c #C10FA6",
"*  c #C20FA8",
"=  c #C315A5",
"-  c #CB17A6",
";  c #C41CA5",
":  c #CA1EA5",
">  c #C415AA",
",  c #CA15AB",
"<  c #C51CA9",
"1  c #CB1CAA",
"2  c #D31DA6",
"3  c #D116AB",
"4  c #D31DAC",
"5  c #DA1DAC",
"6  c #CF16B1",
"7  c #CF1FB0",
"8  c #D217B2",
"9  c #D41CB2",
"0  c #DB1DB3",
"q  c #DC1DB8",
"w  c #E01CAD",
"e  c #E41EB3",
"r  c #E31FBB",
"t  c #C423A5",
"y  c #CB23A6",
"u  c #C42BA3",
"i  c #CC2BA4",
"p  c #C624A8",
"a  c #CC24AA",
"s  c #C528A8",
"d  c #CD2AAA",
"f  c #D325A5",
"g  c #D925A7",
"h  c #D42CA5",
"j  c #DA2CA5",
"k  c #D323AB",
"l  c #DB24AC",
"z  c #D32CAA",
"x  c #DB2CAA",
"c  c #C730A1",
"v  c #CD31A5",
"b  c #CE33A8",
"n  c #D432A6",
"m  c #DB32A6",
"M  c #DC39A6",
"N  c #D532A9",
"B  c #D833A9",
"V  c #DA32A9",
"C  c #D931AA",
"Z  c #DA30AA",
"A  c #D833AB",
"S  c #DB33AB",
"D  c #D830A9",
"F  c #DC33AA",
"G  c #D935A8",
"H  c #DB34A8",
"J  c #DA36A9",
"K  c #DB37A8",
"L  c #DA35AB",
"P  c #D936AB",
"I  c #DB37AA",
"U  c #D835AA",
"Y  c #DC35A9",
"T  c #DD36A8",
"R  c #DF37A9",
"E  c #DF37AB",
"W  c #DD35AC",
"Q  c #DC37AD",
"!  c #DE36AD",
"~  c #DF37AE",
"^  c #DC32AA",
"/  c #D339A9",
"(  c #D23AA9",
")  c #D53BAB",
"_  c #D53DAC",
"`  c #D938A8",
"'  c #DA38A8",
"]  c #DB39A9",
"[  c #DA39AB",
"{  c #DD39A9",
"}  c #DE38A8",
"|  c #DC3AA9",
" . c #DF38AA",
".. c #D938AC",
"X. c #DF38AC",
"o. c #CF22B1",
"O. c #D422B2",
"+. c #DD23B2",
"@. c #D428B0",
"#. c #DC2CB1",
"$. c #DD20B8",
"%. c #DF32B0",
"&. c #E12FA6",
"*. c #E222AE",
"=. c #E32CAC",
"-. c #E033A6",
";. c #E034A4",
":. c #E035A5",
">. c #E234A5",
",. c #E337A5",
"<. c #E035A7",
"1. c #E335A6",
"2. c #E136A6",
"3. c #E337A7",
"4. c #E436A5",
"5. c #E737A4",
"6. c #E636A5",
"7. c #E436A7",
"8. c #E537A6",
"9. c #E737A6",
"0. c #E334A6",
"q. c #E937A7",
"w. c #EA36A6",
"e. c #E038A7",
"r. c #E539A5",
"t. c #E639A5",
"y. c #E539A7",
"u. c #E638A7",
"i. c #E73AA6",
"p. c #E439A4",
"a. c #E838A4",
"s. c #E838A5",
"d. c #E838A7",
"f. c #EB3BA7",
"g. c #EA39A6",
"h. c #E136A8",
"j. c #E237A9",
"k. c #E135AB",
"l. c #E336AA",
"z. c #E136A9",
"x. c #E537A8",
"c. c #E537AA",
"v. c #E437AB",
"b. c #E037AD",
"n. c #E437AD",
"m. c #E334A9",
"M. c #EB36AA",
"N. c #E139A8",
"B. c #E038A9",
"V. c #E338A8",
"C. c #E13BA9",
"Z. c #E139AA",
"A. c #E338AA",
"S. c #E03AAA",
"D. c #E23AAB",
"F. c #E438A8",
"G. c #E439A9",
"H. c #E539A9",
"J. c #E638A9",
"K. c #E53BA8",
"L. c #E63AA8",
"P. c #E638AB",
"I. c #E53AAA",
"U. c #E63AAA",
"Y. c #E538AA",
"T. c #EC3CA8",
"R. c #EC3AA9",
"E. c #F235AD",
"W. c #F43BAC",
"Q. c #F83DAE",
"!. c #E323B2",
"~. c #EA24B4",
"^. c #E428B0",
"/. c #EA2BB4",
"(. c #E520BE",
"). c #EB23BB",
"_. c #EE29B9",
"`. c #F024B7",
"'. c #F12EB4",
"]. c #F127BB",
"[. c #F02AB9",
"{. c #E134B1",
"}. c #EE33B2",
"|. c #F234B2",
" X c #F43AB1",
".X c #F93DB0",
"XX c #E521C0",
/* pixels */
"_ ) ` } h.F.d.d.7.>.>.T R } W W H H N n z z n n m m m j j j j m % % % M e.h.b.b.W W H H G G G ` A.A.F.F.u.u.d.d.T.d.u.u.F.F.A.A.",
"/ / ` } h.7.u.u.7.>.>.T R R W H H U n n h h n n m m m m m m m m M % M | A.} W W B B U U n G G | A.e.F.u.u.u.d.d.d.u.u.F.F.A.A.} ",
"v v n G h.7.7.7.>.>.m T T R ^ B U n n n h h h h n n m m m m T T | | | } ` ` U U n v n n n n G } | A.e.u.u.u.7.7.u.F.u.F.A.} G G ",
"c c n G R >.>.>.>.m m m H B B N v v v i i i v n n n n n H G H H ` ` G U n v v c i u i i n n ` } e.e.F.F.u.u.d.u.c.F.A.A.X.H n n ",
"$ u v G R >.-.m m m m m B B x h i u i i i v v n N U U U U U U U U n n v c u u u u u $ i v n ` } h.c.F.F.F.F.F.F.c.h.R R N h i i ",
". u v n H T m m m m m m B z h d u u u u u i i i n b n n n n n h i d i u u u u @ @ @ $ u i n H R h.>.c.c.F.F.c.c.n.h.B N z i s u ",
". $ i n G ^ ^ m m m z z z h f y t t t t t t i i d d d d d i i i t p t u @ @ @ @ @ @ $ i n G R >.h.h.c.c.c.c.b.b.{.^ z d i s s t ",
". u i n B H m m m z z h h f y y ; t t t t t p p t t a a a t y t t t + + @ @ @ @ @ u u i N R h.-.-.>.>.c.c.h.k.b.{.Z z y t t s s ",
"u $ i n N m m ^ j z h h a a : : < < < < < < < < ; ; ; ; ; ; ; ; ; O O + + @ @ @ + u i i N ^ -.-.n.h.h.h.k.k.{.%.#.z a p t @ @ # ",
"u u i n N z x B z h h d a a : : < < < < < < < < < < < ; < ; < ; ; ; O O + + @ t t t d h x ^ ^ ^ h.h.b.k.k.{.#.x z k a a t t # # ",
"u u i z x z j z z z z a a a 1 1 > > > > > > > > > > > = > o o o o o O O t t t t s d z z x x x x B B ^ k.%.#.x k k a a a p t O O ",
"t t d z x x z z z z d a a a 1 1 > > > > > > > > > > = = = o o o o o O ; t t t y d h z z x x x j z z x Z #.#.k k a 1 1 1 < < ; O ",
"t y z x x x x z z d a a a a 1 1 , , > > > > < < > = = o o o o o O + t t p y y y z h z z z z z z z z z z z @.@.O.4 1 1 1 < < < < ",
"t a z x #.x x z z a a a a a 1 1 1 1 1 1 1 < 1 < ; ; ; ; ; ; ; O + + t t t y y d h h h h h h h h d d y a a a a 1 9 1 1 1 1 7 7 7 ",
": a z x #.#.#.x k a a a a a 1 1 1 1 1 1 1 1 1 < < < < t ; t t t @ @ t t p a d z h h h d i i i i i y p : ; ; = = , , 1 7 9 O.O.o.",
": a z z #.#.#.#.k k a a 1 1 1 1 1 1 1 1 1 < < p ; p t t t t t + @ @ t t t a k z k z z d d d i i y p ; ; ; = = X = = , 1 9 O.o.o.",
"y y a k k @.+.+.O.O.9 9 9 9 7 1 a a a a a a p t t t t t t t t u s s s s s d a k k z #.#.@.a 1 ; ; ; ; ; = o o = = = = > 1 a a d ",
"y y a a @.@.O.O.$.0 0 0 9 9 7 1 a a a a a a a p t t t t u u s s p s s a s a a a k k @.@.O.O.9 1 ; ; = o > o o X & & & = ; a p t ",
"p y y a a O.O.O.0 0 0 0 0 9 O.k k a k a a a a a a p t t t s s s t t t t y y y y y y a k O.O.O.O.- = o o > > > X * & = = ; ; ; p ",
": t y a a k 4 9 0 0 0 0 0 O.O.O.k k k k a a a a a a p t p s s s t t t t t t t y : ; : 1 1 4 O.O.1 = X X o > > & > , , , 1 1 1 ; ",
": : : y 1 1 4 4 0 0 0 0 0 O.O.O.k k k k a a a a a a p t p t a p p p p p p t t t p ; ; ; - 1 1 4 O.1 = X & > > > 6 6 8 8 4 1 1 1 ",
": : : : : 1 1 4 5 0 0 !.0 +.O.O.4 k k k k a a a ; p p p ; p ; p ; t p t t t t t t t ; ; ; - 1 1 O.4 , = & = > 6 8 9 0 0 9 4 1 1 ",
": : : : : : 1 2 4 0 !.!.+.0 +.+.4 9 O.k a 1 1 1 ; ; ; ; ; ; ; ; ; ; ; O O O + + + t ; ; ; - 1 1 4 4 9 1 > = , 8 9 q r r q 0 9 9 ",
": : : : : : 1 2 4 0 +.!.+.0 +.+.O.O.9 4 4 1 1 1 ; ; ; ; ; ; ; ; ; ; ; O O O O O + O ; ; 1 1 : 1 1 4 O.4 > = , 8 q r (.XXr q 0 0 ",
"k k : : : : k k 4 5 +.e +.+.+.+.0 4 2 2 4 1 1 1 ; ; ; ; ; ; ; = = = o O ; ; O O t ; p 1 1 1 1 1 4 1 2 O.O., , 8 0 q r (.r r r r ",
"l k k k y k k k k l l +.+.+.+.+.+.5 4 2 4 1 1 1 ; ; ; ; ; ; ; ; = = = ; ; ; ; ; < p p a 1 : : : 4 2 2 O.O.1 , 3 0 0 r ).r r r r ",
"l l k k k k k k k l l l +.+.+.+.+.+.4 4 k 2 1 : 1 < ; ; ; ; ; ; = = = ; ; < < ; < < 1 1 a a a y 2 2 k k k k 2 , 5 0 e ).).).r r ",
"*.*.l l k k k k k l l l +.+.+.+.+.+.k k k k 1 1 1 1 1 < < < ; ; ; = ; - 1 1 1 1 1 1 1 1 1 y y y k k k k k @.k - 5 5 e ).).).).).",
"!.*.*.l g k k k l l l l l l +.+.+.+.l k k k 2 : : : ; ; ; ; ; ; = ; = 1 1 1 4 4 2 1 1 1 : y y y k k f y k z k 2 2 5 e e ).).).).",
"~.~.*.*.g k k k k g l l l l +.+.+.l l k k k 1 1 ; ; ; ; ; ; = = = = - 1 4 4 9 9 4 4 4 2 : y y y f f f y f z z k 2 5 w e ).).).).",
"~.~.~.*.l x z k f g g l l l +.+.l l l k k k a a : : ; ; ; ; = = = = , , 4 0 0 0 0 5 5 4 k y y y f f f y f z z g 5 5 w e )._._._.",
"`.~.~.^.=.x x x f f g g l l +.+.l l k k k k a a a y < ; ; ; ; ; = = = 1 4 0 0 0 0 0 0 k k k k f f f y h f f z x k l 5 w !.)._._.",
"]._././.=.=.x j f f f j x l l l #.l l k k k a a p p < p < ; ; ; ; ; ; ; 1 1 4 0 0 0 0 +.+.l l k k f f f f h h z x f l l !.^./._.",
"_._._./.^.=.x j f f h j x x l l x x x z k k a a y p p p t t ; ; ; ; ; ; : 1 4 9 0 +.+.+.+.+.+.l g f f f h h h h z f k g *.^././.",
"[._._./.^.=.x j g h h j x x l l x x x x z z z d a a a a t t p p t t t ; : 1 k 4 +.+.+.!.+.l +.l g f f f h j h f j j f g l ^././.",
"[._._./.=.=.&.x j j j j x x x x x x x x z z z h d d d d i i y y t t t p y a k k k l +.+.l k l l x g f f h j h f x x g g g ^././.",
"[.[./././.=.&.x j j j j x x x x x x x x x z z z h i d d d d d i i i y y y y k k k l +.l k 2 k g x x h h h h h h j x x g g =././.",
"'.'./././.n.=.&.x x j j j x x x x j j j x z z n i i i i i d i i i i i i y y k k k g l g 4 2 2 k x j j j h h j j j x &.x g =./.=.",
"'.'.}.}.}.M.n.&.x j x j x x x x ^ m ^ B B N z z i i i i i d d i i i i i i y f f f k l k k k k k f j x x j j j j j ^ k.x =.=.=.=.",
"'.'.|.}.}.M.=.=.&.j x j x x x x ^ ^ ^ B B N z z d d d d d d d i i i i i i i f f f f g f k k f f f j x -.j j j j j -.-.x x =.=.=.",
"'.|.|.|.}.}.n.-.-.&.x x x ^ ^ ^ ^ ^ ^ x x z z z d d d d d d d i i i i i i h h f f f k x x f f f g j x x -.-.j j j j -.-.&.&.=.M.",
"|.|.|.|.}.M.M.m.m.&.x j x ^ ^ ^ ^ B B x z z z z d d s s s d d i i $ i i h d h h h f h x x h f f j j j j -.-.-.j j j -.m.=.&.=.M.",
"E.E.|.|.|.}.M.M.m.-.j j ^ -.^ ^ ^ Z Z z z z d d d a a a y i d d i i i i h h h h h h h x x j j j j j j j -.-.-.-.&.&.-.m.0.&.&.M.",
"E.E.|. X|.R.R.M.m.-.&.-.^ -.^ ^ ^ Z B z z z d d d a a y y y i i i i i i h h h h h h h x x j j j j j j j -.-.>.>.0.0.0.m.m.&.-.m.",
"E.E..X.X X|.R.M.n.m.-.-.-.-.^ ^ ^ B B z z z d d s a a t y y d i i i h h h h z z h h j ^ ^ m j j x j j j -.0.0.0.0.0.0.7.c.-.-.c.",
"E.E..X.X.X X}.R.M.m.-.-.-.-.-.^ ^ B N N z z d d s s a i y i i i i h h h h h z z h h j m h.-.j j &.j j j -.0.0.0.0.0.0.7.c.0.c.c.",
"E.E.W..X.X X|.R.M.c.m.-.-.h.>.R m m N N z z z d s s i i i i i i h h h h z z z h h h j m h.-.-.&.-.-.-.-.0.m.0.0.7.;.6.7.c.7.7.F.",
"E.E.W..X.X X|.R.M.M.m.-.h.h.R R m B B N N z z z d d d d i i h h h h h h z z z z z h j m c.0.;.;.m.-.-.>.c.c.7.0.7.;.6.7.c.c.c.F.",
"W.W.Q.Q..X.XW.R.R.M.c.c.-.-.h.T R R B B N N N N z z h h h h h h z h h h h n z h z z j m c.M.q.0.0.c.h.>.>.c.c.7.M.0.0.c.M.7.q.R.",
"W.W.Q.Q..XW.W.W.R.M.m.c.-.h.h.m R R ^ B B N N N h h h h h h h h h h h h z n n h h z j -.c.M.6.6.0.7.7.-.>.c.M.7.M.0.0.c.M.q.M.R.",
"W.W..X.X.XQ.W.W.R.R.m.m.h.h.h.h.h.R ^ R B B N N z z z z z h j h h h h h z N n h z z j -.c.R.q.6.7.7.q.7.7.d.d.7.q.0.0.q.q.q.q.R.",
"W.Q..X.X.X.X.XW.E.R.M.m.c.c.h.h.h.h.h.R ^ B B N N n z m m m m m m m h h z N n h z j m -.M.R.w.q.q.q.q.7.7.d.R.q.q.q.q.q.R.q.R.R.",
"Q.Q.Q.Q..X.XW.W.E.R.M.m.c.c.c.h.h.h.h.R ^ B B B B B B m m m m T T m j n z z z z z m ^ h.M.R.R.q.q.R.M.q.q.R.R.q.q.6.6.q.w.w.R.W.",
"Q.Q.Q.Q..XW.W.W.E.R.R.M.M.c.c.h.h.h.h.h.^ ^ ^ B B m m m m T >.h.T T m m j z z z j m -.c.R.R.R.R.R.R.R.q.q.R.R.R.w.q.6.R.R.w.R.W.",
"Q.Q.Q.Q.Q.Q.W.W.E.R.R.M.M.c.c.c.>.>.h.>.>.m m m m m m m -.h.h.>.>.T m m m m j h j m h.M.R.R.R.R.R.R.R.M.R.R.R.R.w.q.q.R.R.R.R.W.",
"Q.Q.Q.Q.Q.Q.W.Q.W.R.M.M.M.M.c.c.7.>.h.>.>.m m m m m m m >.h.>.F.h.>.m m m m j h m m >.F.R.R.R.R.R.R.R.R.R.R.R.R.q.q.q.R.R.R.R.W.",
"Q.Q.W.W.W.W.W.W.W.R.M.M.M.M.c.h.c.F.h.>.T m m m m m T h.c.F.u.F.>.T m m j j j j m -.7.R.T.T.R.d.R.R.R.R.R.R.R.R.R.R.w.w.w.R.W.W.",
"W.W.W.W.W.W.W.W.W.R.M.M.M.M.c.h.c.>.h.>.T m m m m m T h.c.c.>.>.T m m m j j j j m >.7.R.T.T.R.d.R.R.R.R.R.R.R.R.R.R.w.w.R.R.W.W.",
"T.T.T.T.R.R.W.W.R.R.M.M.M.M.c.7.7.>.h.T m m m m m m T R >.>.>.>.m m m m j m m m >.h.F.R.R.R.R.R.d.R.R.R.R.R.R.R.R.R.R.R.R.R.W.W.",
"T.T.d.d.R.R.R.R.R.R.M.M.M.M.c.7.>.>.>.T m m m m m H T T T T m m m m m m m m m m h.c.F.R.R.F.u.d.d.d.d.R.R.R.R.R.R.R.R.R.R.W.W.W.",
"i.i.i.d.d.d.d.d.R.R.q.q.M.M.c.7.h.>.T m m m m G G G H G m T m m m m m n m m m T F.F.F.F.F.F.F.7.d.d.d.d.d.d.d.d.d.d.d.R.R.R.T.T.",
"u.u.u.u.u.u.d.d.R.q.q.d.M.M.7.>.>.T m G m m G G n n m m m m m m m m m m m T h.h.F.F.F.F.F.h.>.>.7.d.d.R.d.d.d.d.R.R.R.R.R.R.R.R.",
"p.p.p.p.p.p.d.d.7.7.7.7.M.c.7.>.T T m m m n N B N N n n m m m m m n z m ^ R h.A.F.A.h.h.h.h.h.>.7.u.u.d.i.i.d.d.R.R.d.d.R.R.d.d.",
"p.p.p.p.p.p.5.d.7.7.7.7.7.7.>.>.T m G m n n N N n n n n m m m m j n z B R R A.n.A.A.h.h.>.h.h.>.>.u.u.d.i.i.d.d.R.R.d.d.R.d.d.q."
};
