/* XPM */
static char *_af9ee2c2fdd4da49e88c7f5fa849576mmviBlcpbb6Nx9LY[] = {
/* columns rows colors chars-per-pixel */
"64 64 253 2 ",
"   c #BD7B6E",
".  c #BF7F63",
"X  c #AA7B7B",
"o  c #B57C74",
"O  c #BB7B73",
"+  c #B37B7B",
"@  c #B87678",
"#  c #AF7475",
"$  c #B07E5B",
"%  c #D47C5C",
"&  c #D67E55",
"*  c #CF7C5E",
"=  c #CC7C64",
"-  c #C37B6C",
";  c #CB7B6B",
":  c #C57A67",
">  c #D17C63",
",  c #C37A72",
"<  c #C3893F",
"1  c #9C9959",
"2  c #BB9747",
"3  c #AD8B5C",
"4  c #BC8B5B",
"5  c #A9995A",
"6  c #B79B57",
"7  c #B4A35D",
"8  c #BCAB5D",
"9  c #B8A558",
"0  c #BEB45B",
"q  c #BEB85A",
"w  c #B4A74E",
"e  c #9A8A7B",
"r  c #9B987A",
"t  c #949470",
"y  c #A98968",
"u  c #B7876A",
"i  c #AD9B6B",
"p  c #A89869",
"a  c #B29D6B",
"s  c #B79768",
"d  c #AA8677",
"f  c #B68676",
"g  c #A59575",
"h  c #AB9575",
"j  c #A49B73",
"k  c #AB9B75",
"l  c #A4957C",
"z  c #AB957C",
"x  c #A49B7C",
"c  c #AB9B7B",
"v  c #B59A76",
"b  c #9DA27B",
"n  c #9EA569",
"m  c #ACA463",
"M  c #ACAB6B",
"N  c #A8A569",
"B  c #B4A365",
"V  c #BAA562",
"C  c #BDAC64",
"Z  c #B3A36C",
"A  c #BAA46B",
"S  c #B4AC6D",
"D  c #BBAB6B",
"F  c #B5AB63",
"G  c #BAB464",
"H  c #B4B46B",
"J  c #BBB26A",
"K  c #BBBB6B",
"L  c #B6B867",
"P  c #A6A474",
"I  c #ABA473",
"U  c #ACAB74",
"Y  c #A4A37B",
"T  c #ACA47B",
"R  c #ABAC7C",
"E  c #A5AA78",
"W  c #B4A473",
"Q  c #BBA573",
"!  c #B3AC74",
"~  c #BBAC72",
"^  c #B7A87A",
"/  c #ACB177",
"(  c #B3B573",
")  c #B9B577",
"_  c #AEB16A",
"`  c #D58D4D",
"'  c #D9864D",
"]  c #C8984B",
"[  c #CC835D",
"{  c #C98A58",
"}  c #D48653",
"|  c #DA8453",
" . c #D38A54",
".. c #D3845A",
"X. c #D58A58",
"o. c #C79858",
"O. c #D39855",
"+. c #CD8E47",
"@. c #C7A659",
"#. c #D5A75C",
"$. c #C3B45D",
"%. c #C7B55B",
"&. c #CDA753",
"*. c #C48364",
"=. c #C78765",
"-. c #C79468",
";. c #CC8B6B",
":. c #C2AE6A",
">. c #C5A964",
",. c #C3B364",
"<. c #C3B36B",
"1. c #C8B966",
"2. c #C4A677",
"3. c #C5B674",
"4. c #D3AE68",
"5. c #B8C46A",
"6. c #B5C472",
"7. c #ADC86C",
"8. c #C4C56A",
"9. c #C2C075",
"0. c #7B6CA9",
"q. c #7E7CA4",
"w. c #7D73AD",
"e. c #7C77AA",
"r. c #756CB5",
"t. c #7B6EB4",
"y. c #766CBD",
"u. c #7B6DBC",
"i. c #7665BD",
"p. c #7D73B3",
"a. c #7C72BB",
"s. c #7977B6",
"d. c #6C5ECA",
"f. c #695FC3",
"g. c #715DCC",
"h. c #6C5ED1",
"j. c #725FD2",
"k. c #6D63C4",
"l. c #6D62CA",
"z. c #6D69C6",
"x. c #7265C5",
"c. c #756AC3",
"v. c #7A6CC3",
"b. c #7264CB",
"n. c #746AC9",
"m. c #7A68C8",
"M. c #7C72C3",
"N. c #7671C3",
"B. c #6C62D2",
"V. c #7362D1",
"C. c #927E83",
"Z. c #9C7C8D",
"A. c #98788C",
"S. c #966F97",
"D. c #857B9D",
"F. c #8B7D9D",
"G. c #8B7896",
"H. c #937693",
"J. c #9C7495",
"K. c #937D95",
"L. c #927C9B",
"P. c #997A97",
"I. c #8E7F87",
"U. c #AB7C83",
"Y. c #A37C8B",
"T. c #A77885",
"R. c #A37993",
"E. c #AD7587",
"W. c #8476A4",
"Q. c #8A74A4",
"!. c #847BA4",
"~. c #8B7CA3",
"^. c #8375AB",
"/. c #8A74AB",
"(. c #847AAC",
"). c #8B7CAB",
"_. c #947BA5",
"`. c #816DBC",
"'. c #846EB4",
"]. c #8374B4",
"[. c #837BB2",
"{. c #8375B9",
"}. c #8979B5",
"|. c #8972AD",
" X c #8271C3",
".X c #7E849D",
"XX c #7D87AA",
"oX c #8E868C",
"OX c #9B8D84",
"+X c #95858B",
"@X c #9C838B",
"#X c #958B8C",
"$X c #9B8D8C",
"%X c #978884",
"&X c #9D9384",
"*X c #9D9B85",
"=X c #9C938C",
"-X c #9C9B8B",
";X c #96968A",
":X c #8D8495",
">X c #8D8B94",
",X c #85839D",
"<X c #8D839B",
"1X c #8C8A9C",
"2X c #848798",
"3X c #938594",
"4X c #9B8494",
"5X c #958B94",
"6X c #9A8C94",
"7X c #92849C",
"8X c #9A859B",
"9X c #948B9B",
"0X c #9A8C9B",
"qX c #8E9399",
"wX c #959393",
"eX c #9C9393",
"rX c #9B929B",
"tX c #979597",
"yX c #A78889",
"uX c #B38785",
"iX c #A39484",
"pX c #AA9483",
"aX c #A49B83",
"sX c #AB9C83",
"dX c #A2938B",
"fX c #A3998A",
"gX c #AA9A8A",
"hX c #AA948C",
"jX c #A38394",
"kX c #A38C94",
"lX c #A68A97",
"zX c #A29392",
"xX c #A59797",
"cX c #B69A88",
"vX c #9BA285",
"bX c #9FB084",
"nX c #A3A382",
"mX c #A4A28A",
"MX c #AAA685",
"NX c #B4A584",
"BX c #AAA492",
"VX c #8481A3",
"CX c #8C83A4",
"ZX c #8C8AA3",
"AX c #8583AB",
"SX c #8B82AB",
"DX c #898BAB",
"FX c #9284A2",
"GX c #958AA2",
"HX c #9385A9",
"JX c #9B86A4",
"KX c #8B8DA9",
"LX c #C2A386",
/* pixels */
"=X=X9XCX[.{.M.a.r.w.e.q.VXZX1X,X1X:X:X:X7X7X~.~.).).}.{.a.u.y.c.n.b.V.V.V.d.h.d.B.l.x.c.t.w.(.SX,X:X9XeX-XY P N m q 5.L ( / E nX",
"$X5X<X~.].a.a.y.r.p.q.VX,X1X1X2X9X:X:X:X7X<X~.Q.Q./.].{.a.u.y.c.b.l.d.d.d.d.d.d.l.l.x.u.t.w.!.CXF.:X:X#X&XY U _ K 8.8.K ( E r r ",
"5X:XD.W.p.r.y.a.s.s.!.VX,X1X1X9X9X>X:X:X7X<XF.Q./.^.].a.u.v.c.c.n.b.d.d.d.d.l.b.b.n.v.a.p.e.!.CX<X3X+X%X&XY / K 5.8.5.H / E r r ",
"FXF.W.w.p.r.y.a.s.[.AX,X2X1X9XrX5X5X5X3X7X<XF.W./.].].u.u.c.c.x.b.l.d.l.l.k.b.n.n.v.M.{.^.W.CXGX0X3X@XfXsXI M H L L _ M U nX*X;X",
"SX^.w.p.t.r.y.s.[.AXZX1X>X5XrXrX5X5X5X5X7X7X~.W./.].`.u.v.c.x.l.l.d.k.k.k.k.x.c.v.a.s.].W.!.CXGXxX+X%XgXNXI M K L L M P Y mX;X#X",
"[.w.r.r.r.r.r.p.(.ZX1X9X5X6XeXeXeXwX5X5X9X7X~.Q.}.{.u.v.m.n.b.l.l.d.l.n.x.c.y.u.p.p.w.^.W.F.7X0XzXe e sXNXI S 9.H H U P nX-XwX>X",
"s.a.r.r.r.r.p.(.VX1X9XwX=X=X=X=X=XeX$X5X9X7X~.Q.}.].u.v.m.n.b.l.l.l.b.n.v.y.u.p.p.w.^.!.~.F.7X6XzXe e MX^ S S K m M U Y mXtXqX1X",
"a.a.a.r.r.p.(.VX<X5X=X=X=XiXiX&X=X=X$X5X5X7X~.W.].].u.v.m.n.b.l.l.l.k.x.c.u.p.p.[.(.W.~.FX7X9X6XdXl x NX) ! F m N M P r -XtX1X,X",
"a.a.r.w.e.!.CXGX5X#X&XaXaXaXx x *X&X=X$X5X3XF.~.^.].u.v.c.c.b.b.l.b.n.v.u.r.w.^.[.!.!.CXGXGX0X6XfXx x I ! ) H _ / E b *XtXqX1XVX",
"a.s.p.e.!.,X1X5X=X&Xl x x x c x aX&X=X=X5X3XF.!.^.].u.u.c.c.x.n.n.n.v.M.a.p.w.(.).!.F.F.7X3X5X#X&Xx j p N M H ( / b r ;XqXqX2X.X",
"s.s.e.q.,X:X5X$XiXiXx c c c k c l &X=X=X6X9X<X!.^.].t.u.y.y.c.c.c.c.a.a.p.w.^.).).~.~.<X:X+X#XOXaXY P N n N M ( E b ;X;XqX1X2X.X",
"e.q.q.D.:X5X=X&XaXc c c c c I k x aXfX=XeX9X<X!.W.w.p.t.r.u.a.a.a.a.p.].].^.^.~.~.FXFX7X3X#XeXfXnXR R U M M U / R nX-XwXqX1X2X2X",
"VX,X,X:X>X=X&Xl sXc c c c c k k x aXfX=XeX5X<XD.!.^.w.w.p.p.p.s.p.p.(.(.W.!.~.~.CXFXGX5X#X=XfXmXx Y I U ! / / R Y mX-XwXqXqX1X2X",
",X1X1X5X#X=XiXl c c z c c c k c x aXiX&X$X5X7XF.!.(.(.w.w.p.p.p.(.e.!.~.~.~.F.F.7XGX9X5X#X-XfXnXY P P P U U R E r *XeXtXwX>X>X2X",
"1X1XtXeX=XiXiXc z z z c c c k k l aXiXOX#X5X9XCXCX(.(.(.(.(.e.(.!.D.D.VXCXF.F.F.7X9X9X#X=XfXaXx Y T T I N P j j r -XeXeXtXwX>X>X",
">X5XeXeX=XiXsXsXz z c c c c c x l iX&X%X+X6X0XFXCXSXAXAXAX!.!.!.!.,XVXGXGX7X7X7X9X9X6X#X=XmXmXb r T R ! I j j x r *XxXeXeXeXwX#X",
"#X#X$X=XfXiXl sXc c c c sXsXx l iX=X=XeXkX4XP.P.HXDXDXXXq.D.VXZXZX,X,X<X9X9X:X:X9XkXkXkXdX*XvXbXn R R U I I P Y nXvXvX-X;X-X=X&X",
"$X#X$XdXiXiXiXz l l x c sXsXaXaXdXzXeXeXkXjXP.H.<XZXDXDXZXCX<X1XD.GX9XG.:X9X5XI.kXxXkXdXfX*Xb nXR U P p P R R R Y nXvXvX*X-X&X&X",
"$X$XOXdXiXiXiXiXl l l l aXaXaXaXdX=X#X#X6X6X3XK.F.F._.JXJXJX9X9X3X8X3X5X0X5X+X@XlXlXyXiXiXl g j p p U / / / E t P E MXaXaX*X;Xe ",
"=X=XOXdXiXiXiXiXiXiXiXiXiXfXfXfX=X=X#XoX+X6XrX9X7XK.J.J.P.4X9XrXkX4X+X6XxX6XC.@XyXyXdXgXgXz h a i p ! ! n n / P I T T c aX*X&Xe ",
"dX=X=XdXiX&X&XiXdXdXdX=X=X=X=XeX=X=X@XC.C.+XrXrXlXjXJ.J.A.C.#XeX+XkX$X#XeXzXOX%X%XOX*XaXx g a v Q N S N 1 5 ( ) ! ^ T T x aXiX&X",
"dX=X&X=XOXOXOX$X=XzXeXeXeX6X5X#XeXkXkXZ.X C.+X6XlXjXY.jX@X%X%XOX%X%X=XfX=XOXiXgX&X&XaXY r p Q 2.~ S S S m 5 m m S ! I j c sXpXpX",
"dXOXOXOX$X@X$X6X6X6X0X0X5X5X3X3X4XjXjXjX@XC.+XjXY.Y.yXkX=X=X&X&X-Xe &XBXpXe iXMXmXnXMXMXI I ) ) ) S D D V 6 5 7 S M I j j z pXpX",
"OXOX@X$X$X5X3X9X9X9XGXGX7X7X:XK.A.J.R.lX6X+X+XjXT.X T.dXBXmXmXaXBXr pXcXf z cXg x r x T i N M m p B 3.3.<.8 8 <.J ~ W k c z pXyX",
"zX$X$X3X3X7X7X<XCXHXHXCXFXFXF.H.S.J.J.4XrXrX6XZ.E.# X yXfXBXMXMXsXg d f f u f LXv g y p Z p 1 m 5 B <.<.F G 1.<.D A a v c z iXdX",
"6X6X3X3X7XCXCX~.!.).).).).CX~.L.S.J.H.K.0XrXeXyXX # # + pXsXc c NXv y u u u u u 2.Q v W Z m M K V V <.<.8 8 G V 3.Q a h z iXdXdX",
"8X9X7X<XCX).(.(.^.[.(.^.^.~.).~.G.G.H.K.4XzXxXhXU.@ @ @ f f h y v v y y s 2.s 3 u v Q ~ ) ) K 6.C 6 w ,.1.1.<.D B a h z sXhXdX$X",
"7X7XF.~.).[.].p.p.s.p.w.0.W.Q.).,X<XK.A.Z.yXhXuX+ @ @       u u y s Q Z W 2.s 3 3 3 5 m ) 6.K K 1.9 9 1.3.,.V B p p g sXgXdX$X+X",
"FX~.~.(.[.{.a.a.a.u.t.0.0.0.Q.).ZX1X3XA.T.U.uXuX+ o O - : ; : . $ s W ( ( ( S i A 6 5 5 G L L 8.8.$.$.1.4.9 5 i W T nX*X=X$X6X4X",
").).(.].s.a.y.c.c.y.u.t.0.W./.).GX9X4XZ.T.@ @ @ O O O - ; ; = *.4 3 i S 6.6.H _ 3.C 7 8 ,.$.0 8.8.0 w 9 ,.>.s a k MXmX-XeX5X3X3X",
").(.].p.a.y.c.k.k.i.u.{.{.|./._._.jX4X@XX # @ , , O - - ; = ;.;.-.4 6 C 5.6.6.6.K ,.@.#.#.#.&.%.%.%.w 9 ,.J m p g l gXzXeX9X1X2X",
"}.].p.u.y.c.k.k.k.i.`.}.}./.Q.S.R.R.jXyXX @ @ , - - : : = = [ =.4.>.>.,.8.5.5.5.L 8 2 +.O.#.] 2 2 %.1.,.J S W ^ c gXdX6X5X9X1X,X",
"{.a.y.c.n.n.x.x.i.t.'./.Q.S.S.J.J.T.T.U.+ @ @ O   : : =.[ [ ..o.<.K 1.1.1.K 5.8.8.@.2 < ` #.&.2 2 >.3.C 5 I NXl l OX$X6XGXCXVXAX",
"M.N.c.x.b.b.n.m.u.'.|.Q.S.S.J.R.T.T.E.U.+ @ O , - : = [ [ [ ..o.,.5.1.1.$.$.%.%.1.%.] 2 ] #.#.@.2 6 :.Q p k NXsXiXOX#X9XFXSX(.(.",
"N.c.x.k.k.x.m.M.u.'./._.S.J.J.R.T.U.E.E.@ , , : ; = * % & & }  .@.$.1.%.&.] ] &.#.%.%.0 $.1.$.9 6 6 a ^ c g iXgXiX$X5X3X~.!.^.w.",
"c.x.k.k.k.x.v. Xt.^._._.P.P.P.Y.T.+ + @ @ , ; ; > % % % & & |  .+.o.#.&.] +.+.+.&.%.8.5.5.5.G 7 V s a ^ NXl e fXOX#X3X<X~.^.w.p.",
"k.k.f.k.x.v.M.s.^.~.FXJX8X4XZ.Y.X + o o   - ; > % % & & | | | | ' ` O.O.` ` ` +.] $.5.7.7.7.K D A a h c NXgX&X$X#X3X7X~.).p.t.r.",
"l.k.f.k.v.M.a.p.!.~.7X4X4X@X@XyXd f f f u *.=.> % & & | | | | | ' ' ` ` ` ` ` +.] 0 5.7.7.6.H B i h h l gXxX=X6X3XF.~.).].t.y.i.",
"l.k.k.x.N.a.[.W.VX7X0X6X@X%XOXiXz v v s u *.[ [ ..} } | | } ` ' ' ' ' ` ` ` o.o.9 G K 6.) ) B 3 y z z l fX=X5X0X<X~./.].`.y.x.k.",
"k.k.x.c.a.].(.VX<X5XzXdX&Xe e l T ^ ^ s s 4 { X.} } }  .X. .} } | | | | X.o.@.V J J J ~ ~ 2.a y y sXgXiX=X#X:XGXCX).{.`.v.c.k.d.",
"x.c.v.a.p.(.CX7X5X$X=XaXaXx g j ^ W Q :.s 4 { X.}  . . . . . .} X. .X.} { o.:.3.J S s s s v v k sXpXdXdX$X5X1X!.^.]. Xv.n.d.d.h.",
"c.v.a.p.(.~.7X5X#XOX&XsXT T T W Z A A >.o.o.{  .} } X.X.X...} ......[ [ { s A ~ ~ v u u u v c MXe e OX=X6X9XHX(.].`.v.m.n.d.h.B.",
"a.a.].W.~.7X5X#XOXe x T ^ ! ! ~ B 7 o.o.o.o. . .} } X.} ....% % ..[ [ [ u s s 2.v f u o d l mXBX%X%X$X0X9XZXSXp.a.v.n.b.g.d.l.B.",
"].].W.~.7X6XOXOXiXx c ^ ! ! S D 7 6 o.o.o.o. . .} } X...% % > > = = *.u u u u f f f f f pXdX-X-X#X6X6X9X<X!.(.t.v.m.b.g.d.l.b.n.",
"^.!.~.<X6XdXiXl c c W ! ! J G 8 6 o.o.o.o.O.O. . . .....> > > > ; : : u u u u f O O uXuXhXxXwXoXoX3XGXCX!.e.p.u.m.b.d.d.x.k.c.N.",
"!.F.7X3X$XdXpXh k k W ! S J G ,.@.o.o.o.@.#.O.o.{ { [ [ *.= ; ; ; - -     O O O @ + U.yXxXxX6XoX:XFXHXSXe.w.a.c.c.b.d.b.x.y.a.s.",
"F.7X4X6XdXpXc k k W Q S F G G $.@.@.@.@.@.4.4.o.o.{ =.*.*.: - , , - ,   O O o o + + T.Y.jXlXjXK.FXHXHXSXw.s.u.x.x.d.l.n.c.a.s.s.",
"K.3X6XdXl c a a a Q ~ D F 8 0 0 ,.,.$.@.,.4.4.>.-.-.=.*.*.- , , , , O O o o o + X T.Y.Z.jXjXR.P._.).).[.s.M.v.f.l.d.x.c.a.p.e.q.",
"+X$XdXl k Z B 7 7 C :.V 7 7 C ,.<.G G K 3.:.2.2.-.*.: -     O o O O o d d uXU.T.T.Z.K.8XJXFXP.G.).[.{.a.c.x.l.l.l.k.c.u.p.(.~.,X",
"$XdXiXk i B 8 8 ,.,.>.V 7 V :.<.K K K H F B s -.;.*.- , O O o o o o X d yXyXyXY.Y.P.7XFXHXHX_.Q.[.{.a.v.x.l.l.l.l.x.u.p.^.~.FX7X",
"iXiXc k Z D C ,.<.:.C V V D D J H K H m 5 s s u u u u f o f f o X X X yXhXlXyXZ.Z.P.L.FXHXHXQ.Q.].a.u.c.k.k.d.d.n.v.a.].~.FX0X0X",
"g k k Z A :.<.<.:.C B B B A A Z M S S i p y u u u u d o X f uXuXU.U.T.yXlXlXjXZ.A.H.F.~.HX)./.^.p.u.c.x.k.k.l.k.v.v.p.(.~.7X6X6X",
"i Z Z D D <.:.D A B a a i i a Z W I i a i y y f d d d X d yXhXyXyXR.Y.Y.jXjX4XK.K.G.G.Q.).}.].t.u.c.x.k.k.l.l.x.M.a.^.~.7X6X$XOX",
"B D J <.<.D D A A a i p p p k k k g g c NXc z cXd d d X d yXzXzXjXP.A.A.P.8X7X7XD.D.Q./.].{.p.u.c.x.k.k.k.x.x.c. X].~.7X0XzXiXl ",
"9 C <.<.J D A Z W k h h h g g h h d g sXsXsXgXcXyXU.U.yX@X@X6X0X8XP.H.H.H.L.FXCX!.W./.'.`.u.y.c.k.k.k.k.k.c.v.a.{.).FX6XkXiXc c ",
"w 0 ,.<.D S W W c c z sXgXpXe e pXpXiXfXdXfXdXhXyXyXyXjX@X+X3X9XFX7XL.H.H.F.CXSX[.[.{.`.i.x.k.l.l.l.l.k.x.v.a.].W.~.8X$XiXg k W ",
"$.0 ,.J D I k c e e iXdXiXiXdXdXOX=X=XOX%X%X@X@X@XkXlXlX4XK.K.K.FXCXL.L.L.~.(.s.s.a.u. Xm.b.l.l.d.l.b.c.v.a.].).~.9X@XhXh W i i ",
"q 0 G S W k l iXOXOX$X$X$X$X$XeXoX#X#X#X+X+XC.C.4X3X8XJX8XH.H.L.HXCX~.~.~.(.[.s.a.N.m.m.V.j.h.h.l.b.c.v.a.].}.FXK.$XiXc k Q B B ",
"G G H ! T l &X$X#X5X6X5X5X5X5X5X5X5XtXtX0X6X5X3X9XK.L.JXJXL.L.~.SXSX).)./.].s.a.N.v.n.b.j.h.h.B.b.c.v.u.w.^.~.9X$XiXl k Z ~ C C ",
"L H ! T aX&X#X5X:X:X9X9X9X7X7X<X3X:X:X>X1X9X9X9X7XK.L._.HX_._.).).(.(.].].p.y.y.n.n.b.b.g.h.h.b.c.u.u.p.^.~.7X+XdXc k Z A :.<.<.",
"( U T aX=X#X1XZX,X,XCXCXCXCX,XF.L.K.:X2X1XZXZX1X7X_._._._.).).^.[.[.].p.a.y.c.x.b.b.l.l.l.d.b.n.v.t.w.^.FXGX6XOXl k W A D C ,.,.",
"U E Y -XwX1X1XZXCXCXVX!.!.!.~.~.L.7X7XZXKXKXZX,XHXHX_.Q.Q.).(.0.].{.a.a.c.c.x.x.b.d.l.l.k.k.c.m.u.w.W.~.GXrXzXiXg i ~ D <.C 8 9 ",
"Y b *X;X5X<XVXAXAX(.!.!.!.!.!.~.~.7XFX1XCXCXF.D.VXHXSXW.^.^.^.0.'.u.y.c.z.z.b.g.d.d.l.l.k.k.v.`.{.^.W.F.7X6XdXl j I 3.D <.8 8 w ",
"b b ;XwX1X,XVXAXq.q.!.!.!.(.).~.FXFXFX7X7X<X<XD.VXCXSXSX(.].^.'.`.u.c.z.z.l.g.g.g.d.l.z.z.c.v. X}.).~.7X9XeXdXl T ! 3.D <.8 8 9 "
};
