/* XPM */
static char *collectible1707242004[] = {
/* columns rows colors chars-per-pixel */
"64 64 5 1 ",
"  c None",
". c #3452B3",
"X c #358EE4",
"o c #7BC6F8",
"O c #F1F1F1",
/* pixels */
"                                                                ",
"                                                                ",
"                                                                ",
"                                                                ",
"                                                                ",
"                                                                ",
"                                                                ",
"                                                                ",
"                                                                ",
"                                                                ",
"                                                                ",
"                                                                ",
"                                                                ",
"                                                                ",
"                                                                ",
"                                                                ",
"                                                                ",
"                                                                ",
"                                                                ",
"                                                                ",
"                                                                ",
"                          ..XXXXXXXX..                          ",
"                          ..XXXXXXXX..                          ",
"                      ....XXooooooooooXX..                      ",
"                      ....XXooooooooooXX..                      ",
"                    XXooXXooOOooooooOOooXX..                    ",
"                    XXooXXooOOooooooOOooXX..                    ",
"                  ..ooOOXXooOOOOooOOOOooXX....                  ",
"                  ..ooOOXXooOOOOooOOOOooXX....                  ",
"                  XXOOOOooXXooOOOOOOooXX......                  ",
"                  XXOOOOooXXooOOOOOOooXX......                  ",
"                  XXOOOOOOooXXXXXXXXXX........                  ",
"                  XXOOOOOOooXXXXXXXXXX........                  ",
"                  ..ooOOooXXOOooXXXXooXX......                  ",
"                  ..ooOOooXXOOooXXXXooXX......                  ",
"                    XXooooOOOOOOXXooooooXX..                    ",
"                    XXooooOOOOOOXXooooooXX..                    ",
"                      XXooOOOOOOXXooooXX..                      ",
"                      XXooOOOOOOXXooooXX..                      ",
"                        XXooOOOOXXoooo..                        ",
"                        XXooOOOOXXoooo..                        ",
"                          XXooOOXXoo..                          ",
"                          XXooOOXXoo..                          ",
"                            ..ooXX..                            ",
"                            ..ooXX..                            ",
"                              ....                              ",
"                              ....                              ",
"                                                                ",
"                                                                ",
"                                                                ",
"                                                                ",
"                                                                ",
"                                                                ",
"                                                                ",
"                                                                ",
"                                                                ",
"                                                                ",
"                                                                ",
"                                                                ",
"                                                                ",
"                                                                ",
"                                                                ",
"                                                                ",
"                                                                "
};
