/* XPM */
static char *_abe738eafb6417b8e658548db4a1d1dEq9sFYAtn9sFBlco[] = {
/* columns rows colors chars-per-pixel */
"64 64 211 2 ",
"   c #69257C",
".  c #791D8E",
"X  c #5D2F8B",
"o  c #6F2682",
"O  c #722F8E",
"+  c #673989",
"@  c #7E338C",
"#  c #6B2D90",
"$  c #772995",
"%  c #6C3296",
"&  c #643798",
"*  c #7E3095",
"=  c #3A579F",
"-  c #23619D",
";  c #377AAF",
":  c #584499",
">  c #57509E",
",  c #454C9A",
"<  c #624D9F",
"1  c #61429F",
"2  c #6B5194",
"3  c #78519A",
"4  c #5D4FA4",
"5  c #575FA8",
"6  c #7042A4",
"7  c #6957A8",
"8  c #7153A6",
"9  c #5D65B8",
"0  c #4978B8",
"q  c #4774AF",
"w  c #746FB3",
"e  c #6879C3",
"r  c #757DCA",
"t  c #911C96",
"y  c #AE1F9F",
"u  c #B8139E",
"i  c #842292",
"p  c #8E2C9C",
"a  c #872A97",
"s  c #96279A",
"d  c #843D93",
"f  c #8B3195",
"g  c #8C308F",
"h  c #AB2E9C",
"j  c #A4259F",
"k  c #BF2A9F",
"l  c #B0219F",
"z  c #A8359D",
"x  c #B5339F",
"c  c #BF0EA6",
"v  c #AE1BA0",
"b  c #BF13A4",
"n  c #BF1FA7",
"m  c #9927A0",
"M  c #AD27A5",
"N  c #BE24A4",
"B  c #B52DA3",
"V  c #BC2BA6",
"C  c #BD2CAB",
"Z  c #B724A8",
"A  c #BD32A5",
"S  c #B437A5",
"D  c #BA2DB0",
"F  c #AA3BA1",
"G  c #C3239E",
"H  c #C32A9E",
"J  c #D2249F",
"K  c #D9369C",
"L  c #C10FA4",
"P  c #C20FA8",
"I  c #C314A5",
"U  c #CA16A5",
"Y  c #C41CA6",
"T  c #CB1CA5",
"R  c #C415AA",
"E  c #CB15AB",
"W  c #C51CA9",
"Q  c #CC1CAA",
"!  c #D21EA7",
"~  c #DA1EA6",
"^  c #D21DAD",
"/  c #DB1DAB",
"(  c #D016A5",
")  c #CF16B1",
"_  c #D41CB2",
"`  c #DA1DB3",
"'  c #DC1EB9",
"]  c #E21CAD",
"[  c #E41DB3",
"{  c #E31EBA",
"}  c #C423A5",
"|  c #CB24A5",
" . c #C32BA3",
".. c #CB2BA4",
"X. c #C523A9",
"o. c #CC23AA",
"O. c #C52AAA",
"+. c #CC2BA9",
"@. c #D325A5",
"#. c #DA25A5",
"$. c #D42CA5",
"%. c #DA2DA5",
"&. c #D423AB",
"*. c #DB24AC",
"=. c #D42BAA",
"-. c #DB2CAA",
";. c #C232A5",
":. c #CD31A4",
">. c #C532A8",
",. c #CD31A9",
"<. c #D432A5",
"1. c #DB33A5",
"2. c #DD39A5",
"3. c #D433A9",
"4. c #D936AA",
"5. c #DE36A9",
"6. c #DE35AE",
"7. c #DC32AA",
"8. c #D638A9",
"9. c #DA39A9",
"0. c #DE39A9",
"q. c #DD39AA",
"w. c #CC22B2",
"e. c #C62AB2",
"r. c #D422B1",
"t. c #DC22B2",
"y. c #DD2BB1",
"u. c #DC21B8",
"i. c #E12FA7",
"p. c #E323AE",
"a. c #E22CAB",
"s. c #E92EAF",
"d. c #E236A6",
"f. c #E636A6",
"g. c #E234A6",
"h. c #EA36A6",
"j. c #E138A6",
"k. c #E539A7",
"l. c #E339A5",
"z. c #EA39A6",
"x. c #EB39A6",
"c. c #E236A9",
"v. c #E334AA",
"b. c #EB35AB",
"n. c #E139A9",
"m. c #E439AA",
"M. c #EC3AA9",
"N. c #F136AD",
"B. c #F23BAC",
"V. c #E323B4",
"C. c #E925B7",
"Z. c #E42AB1",
"A. c #EB2BB4",
"S. c #E520BD",
"D. c #EB24BB",
"F. c #EE28B9",
"G. c #F12EB4",
"H. c #E234B0",
"J. c #EE34B2",
"K. c #F233B2",
"L. c #F53BB1",
"P. c #F83DB1",
"I. c #907EBC",
"U. c #F840B2",
"Y. c #E722C0",
"T. c #917CC1",
"R. c #3480BE",
"E. c #798ABE",
"W. c #4D97D9",
"Q. c #5598D7",
"!. c #4F91C5",
"~. c #6E8FD2",
"^. c #748FD2",
"/. c #799CCE",
"(. c #77A7CB",
"). c #67A4D8",
"_. c #79A3DE",
"`. c #75A9D5",
"'. c #58AAF3",
"]. c #65A6E6",
"[. c #70A2EB",
"{. c #7AAEF5",
"}. c #69BCFF",
"|. c #79C2EB",
" X c #7AC5FF",
".X c #879AD6",
"XX c #9192CB",
"oX c #8BB8D7",
"OX c #9FBEED",
"+X c #9FBFF8",
"@X c #8FB9F5",
"#X c #B3BDF8",
"$X c #97CBED",
"%X c #89C7F4",
"&X c #9BC9FF",
"*X c #98D5FF",
"=X c #B6CAFF",
"-X c #A5DAFE",
";X c #ABD9FF",
":X c #B9DFFF",
">X c #A9E6FF",
",X c #BBF6FF",
"<X c #C9CBFE",
"1X c #C4E4FF",
"2X c #C2ECFF",
"3X c #CCEAFF",
"4X c #D4EAFF",
"5X c #DDEBFF",
"6X c #CCFAFF",
"7X c #CAF3FF",
"8X c #E5FFFF",
/* pixels */
"9.9.9.2.c.f.f.l.g.2.j.0.5.5.v.6.6.4.$.$.$.$.1.1.1.1.1.%.%.%.1.1.K K K K 2.2.v.v.H.6.5.5.5.5.q.q.d.n.l.z.M.z.z.z.z.z.z.l.l.j.j.0.",
"8.8.9.q.c.f.f.l.d.j.j.q.5.5.v.6.4.4.$.$.$.$.$.<.4.1.1.1.1.1.1.1.K K 2.0.n.n.n.6.6.6.4.1.1.4.2.2.d.m.l.M.z.z.z.z.x.z.l.l.j.n.n.q.",
":.<.8.q.n.d.d.d.d.2.2.2.1.5.7.6.4.<.$.$.$.$.<.<.4.4.4.4.1.1.4.4.1.2.0.q.q.9.7.8.3.3.$.$.<.<.4.2.d.d.l.m.z.z.z.z.z.z.l.n.j.q.7.9.",
":.:.8.4.5.d.d.d.2.2.1.1.1.4.7.4.<.........$.$.<.8.8.8.7.7.4.7.4.9.9.9.8.<.,.+..... .....$.<.7.q.d.d.f.l.z.z.h.z.f.f.n.n.5.4.<.<.",
"H  .<.8.2.2.1.1.1.1.<.<.%.-.%.$.+.....H ..+.<.<.3.8.3.8.7.7.8.8.8.8.<.,... . . . . .H H ..<.7.q.d.f.f.h.f.f.f.v.d.c.c.5.7.<.....",
"H  .:.<.7.1.1.1.4.1.<.$.-.%.$.=... . . ...+.,.,.+.,.3.3.3.<.<.<.$.+... . . . . . .V  . .+.<.7.2.d.d.f.f.f.f.v.v.c.c.6.7.3.+... .",
"k  ...<.4.7.1.1.1.<.$.3.%.%.@.| } } } }  .......+.+.+.+.........| |  . .} V V V V  . ...$.3.4.5.c.d.f.f.v.v.c.v.v.4.3.$... . . .",
"k  ...3.4.7.7.1.1.$.$.$.%.=.@.T Y } Y Y } } } } } }  .|  . .} } } } } } } N N N V  . ...3.4.6.c.c.c.c.g.v.v.v.v.7.-.+.| } } }  .",
"k H ..<.4.6.7.1.$.$.$.=.=.o.T T W W I W W W W W X.W W W W Y W Y I Y Y } } N N N N  ...=.3.7.v.v.v.c.c.v.v.H.H.v.-.=.o.} } N N N ",
"N H ..<.7.7.-.-.$.$.=.=.o.o.T T W R R R W Y W Y W Y Y I I I I I I I Y Y } } } } }  ...=.4.7.7.7.c.c.c.v.v.v.-.-.&.&.o.o.} } N N ",
"N  .+.=.=.-.-.%.$.=.=.o.o.o.Q W R R R R R R R I I I I I I I I b I I Y Y } }  . .+.+.=.%.-.-.-.-.4.4.7.v.H.-.-.&.Q &.o.o.Y W W X.",
"}  .+.=.=.-.-.-.$.=.&.o.o.o.Q W E R R R R R R R R I I I I I R I Y Y Y Y }  .| | +.+.=.%.%.-.%.$.$.%.4.7.7.-.&.&.Q Q Q Q Q W W W ",
"} ..=.=.-.-.-.-.=.&.o.| o.o.Q W Q W W W W W W I R I I I I I Y W W Y } } } | | +.=.=.$.=.$.$.$.$.$.=.=.=.=.&.&.r.r.^ W W Q Q Q W ",
"} | =.-.y.-.-.-.&.&.o.o.o.o.Q Q W W W W W W W W W I I I Y Y W X.N N } }  .| +.@.@.=.=.=.=.$.$.$.+...| | o.o.o.Q ^ Q E E Q &.Q Q ",
"} | &.-.y.Z.-.-.&.o.o.o.o.o.Q W Q W W W Q X.W W W W W Y Y } X.} N N N } O.+.o.=.@.=.=.=........... .} Y Y W U U Q E E Q _ _ ^ Q ",
"} } o.=.y.Z.y.y.&.&.&.o.o.o.Q Q Q Q Q Q o.o.X.X.X.X.X.X.} } } } } }  . ...+.+.+.=.=.=.@.@.o.....X.} Y Y I I I L I U E ^ ^ r.&.o.",
"} | +.=.r.t.u.u.r.r.r._ ^ ^ ^ ^ ^ ^ ^ o.o.X.X.X.X.X.} T Y } } } } | o.@.&...+.+.+.=.y.t.t.&.Q W Y Y Y I I b b b I I I U Q o.o.+.",
"G | +.&.r.r.r.u.' ' ` _ _ ^ ^ ^ &.^ &.&.&.o.O.O.O.X.o.o.T o. .}  .| o.@.+.|  . .O.+.&.t.t.` w.w.W W I I R b b c L I I U W W X. .",
"G } | o.&.&.r.` ` ` ` ` _ _ ^ &.O.O.&./ ] *.o.O.C O.| o.! @.| O.V V } | | | } } }  .&.^ ` r.r.r.W I I b I R R c P I I I W W Y } ",
"G } | o.&.^ ^ _ ` ` ` ` ` _ r.&.O.O.&./ / / o.O.C O.X.o.@.o.| O.V V }  .| } } N N } Q Q ^ ^ _ r.Q U I b I R R P E E E E W W Q W ",
"} } | o.o.Q ^ ^ ` ` ` ` ` ` t.&.&.o.&.@.@.o.X.O.V V  . .}  .} V V N } } Y } } } N Y T T Q Q Q Q r.Q U I I R R R ) ) _ _ ^ Q Q Q ",
"} } | | Q Q ^ ^ ` ` ` ` ` ` t.t.*.&.&.o.|  .} } N N N N N N N N } } T T Y Y X.} } Y U U T Q W Q r.^ Q I R R E E _ ` ` ` _ ^ Q Q ",
"| | | o.T Q ^ ^ / ` ` t.` ` t.t./ / &.o.| | } } } N N N N Y W U U ( U U U Y W Y Y W U T T T Q Q ^ _ _ Q R R E ) ' ' { { ` _ ` _ ",
"T | o.T T T ^ ^ ^ ` ` t.` t.t./ / / ^ o.o.T Y W Y Y Y n Y I W U U U U W W I W W W U U T T T Q Q Q ^ t._ E R E _ ' { Y.{ { ' ` ` ",
"T T T T T @.&.&.^ / t.t.t.t.V.t.t.&.^ ^ ^ Q W Q Q I Q Q u X.u Z y l Z Z X.Y W U U U U Q T T T T ! ! ^ _ Q E E ) ' S.D.Y.S.{ { { ",
"&.@.! ! ! &.&.&.&.&.*.t.t.t.V.t.t.r.^ ^ ^ Q Q Q ^ U Q Y v j s . a a i s M N W U Q Q Q o.| | o.@.! ^ &.&.Q W E ) ` { S.D.{ { { { ",
"t.*.&.&.&.&.&.&.&.*.*.*.t.t.V.V.t.t.&.&.o.o.Q Q U Y Z t a % < 4 > : & O p M n U Q Q o.X.+.+.+.@.T ^ &.&.&.Q Q ! _ ` { D.D.S.{ { ",
"V.t.*.*.*.&.&.&.*.*.*.*.*.t.V.t.t.t.r.o.o.o.Q T } M i X : 5 ^._._._.r 7 # i M e.Q Q o.X. . .| @.@.@.&.&.&.&.^ ! ^ / [ D.D.D.D.S.",
"C.C.V.*.*.*.&.@.@.&.*.*.*.t.t.t.t.*.r.&.&.&.! } h * < w 0 ).*X%X|.*X&X.X7 % p Z X.Q Q | | | | | @.@.@.@.=.=.&.! ! / [ C.D.D.D.D.",
"C.C.V.*.*.*.#.@.@.@.*.*.*.t.t.t.*.*.&.&.*.*.@.N g + .X-X!.|.,X>X%X>X,X&Xr < $ t C Q ^ ! @.| | | @.@.@.@.=.=.&.&.~ / ] V.D.F.F.D.",
"D.C.C.V.*.*.#.@.@.@.&.*.*.t.t.t.*.*.*.~ ~ @.} h @ 8 =X2X`.`.:X3X1X2X-X`.q , & $ C &./ / / @.| $.@.@.=.@.=.=.=.&./ / ] [ D.D.F.F.",
"D.D.C.V.p.*.#.%.@.@.@.&.*.*.t.t.*.*.*.#.#.@. .h   T.4X6X>X(./.OX+X@X).; - = : $ D &.] ] / @.@.@.@.@.$.@.$.=.=.&.*.*./ [ V.D.F.F.",
"D.D.C.A.Z.a.-.%.$.$.@.@.&.*.*.*.*.*.=.=.*.@.o.B o w =X6X-X(.oX(.!.W.W.R.- = 1 . D ` [ [ V.*.*.&.#.@.@.J @.$.$.@.#.*.*.*.V.C.C.D.",
"D.D.A.A.Z.a.-.-.%.$.@.@.*.*.*.*.*.#.=.=.*.&.&.V f + XX;X$X$X7X;XQ.'.}.].0 , % m w.` [ V.V.t.*.*.#.#.@.@.$.%.$.$.-.#.*.*.V.Z.A.A.",
"F.F.A.A.Z.a.i.-.%.%.%.%.-.-.*.*.#.#.*.-.=.=.+.O.B g 3 E.$X,X8X1XQ.}. X[.9 & s O.r.` t.u.V.t.t.&.#.#.@.$.$.%.%.%.-.-.*.*.p.Z.A.A.",
"F.A.A.A.Z.a.a.-.-.%.-.-.-.-.*.*.$.%.-.-.=.=.=.+...S d 2 .X:X5X3XQ. X{.9 & p V &.^ t.u.u.t.*.&.=.@.@.$.$.$.$.$.$.-.-.-.*.*.Z.A.A.",
"F.A.A.A.A.a.i.-.-.%.%.-.-.-.-.-.%.$.-.-.-.=.=.=.=. .F d 2 XX<X4X].{.r & i B =.T &.t.V.t.^ ! o.=.@.%.-.-.%.$.$.$.-.-.-.-.a.a.Z.A.",
"G.A.A.A.s.a.i.i.-.-.%.-.-.-.-.-.4.4.-.-.-.-.-.=.=.+.;.z g 3 I.#X~.e 6 p B +.+.o.&.t.V.] ~ T o.=.=.-.-.-.-.%.%.%.-.-.-.-.a.a.s.s.",
"G.G.K.K.J.b.v.i.%.%.%.%.-.-.-.-.4.3.3.7.-.a.-.-.=.,. . .x f + w 7 & a B +.+. .+.&.*.p.] / ~ | ..=.-.-.-.-.-.-.%.%.%.i.i.a.a.s.b.",
"K.K.K.K.J.b.v.v.%.%.%.%.-.-.-.-.%.<.8.3.-.-.-.=.+.G =.7.H S @ + O f S >.| ..,. .=.&.p.] p.*.@.| @.-.-.-.-.%.%.%.%.%.1.i.i.a.a.b.",
"G.K.K.K.J.J.b.v.v.i.%.%.-.-.7.7.4.7.4.4.-.%.=.=.+...+.....A z s h B A ;.......=.=.&.*.*.p.#.@.@.-.@.#.-.7.-.%.%.%.%.g.g.i.%.i.v.",
"K.K.K.K.J.b.b.b.v.i.%.%.-.-.7.7.7.7.7.7.%.$.+.+.+.| | ..+.>.A V | ..;.;.:...$.@.@.&.=.-.-.%.#.%.%.$.%.-.v.7.%.%.%.%.g.v.g.%.v.b.",
"N.K.K.L.K.J.J.b.v.v.%.%.-.7.7.7.8.7.i.i.-.+.>.;. . .| ..O.+.+...@.=...:...$.$.#.@.@.=.=.4.%.%.%.%.%.%.7.v.v.1.1.1.g.d.v.g.1.g.b.",
"N.N.L.L.L.N.J.b.v.v.i.g.7.v.7.7.8.7.i.a.%.+.;.A V  .| | | | ..@.=.$.$.$.$.$.%.@.@.&.=.3.8.<.%.%.%.%.%.1.c.c.d.g.g.g.c.v.d.g.v.m.",
"N.N.L.L.L.N.b.b.v.v.i.v.v.v.7.7.7.4.i.a.-.=. .A A V | | T | | ..+...@.#.%.$.$.$.-.#.-.4.7.8.1.%.%.%.%.1.g.c.c.g.g.g.g.v.c.g.c.m.",
"N.N.L.L.L.L.b.b.b.v.v.v.v.v.7.7.7.7.-.-.-.=. . .V  .| o.@.@.......$.@.@.$.$.$.$.-.%.-.-.7.1.1.1.1.1.1.1.g.c.f.g.g.g.d.v.c.d.c.m.",
"N.B.L.P.L.L.b.b.b.v.v.v.c.c.2.7.a.a.-.3.3.+.+.........+.+.+.+.+.#.#.$.+.....$.$.-.$.%.-.v.g.g.1.d.c.1.1.g.m.v.d.g.g.d.v.c.c.c.m.",
"N.B.P.P.P.L.N.b.b.v.v.v.v.c.g.v.a.i.7.3.,.,.$.=.@.....+.+.+.+.+.#.#.$.,...+.$.$.=.$.$.-.v.v.g.1.c.c.g.1.d.m.m.d.d.g.g.v.v.c.v.v.",
"M.N.P.P.P.P.L.M.M.b.v.v.v.c.c.c.v.-.7.4.4.3.%.%.=.=.=.=.=.=.=.=.%.%.$.$.$.$.=.=.=.=.-.7.v.m.d.d.c.v.v.c.c.v.v.v.v.g.g.v.v.v.v.b.",
"N.N.P.P.P.P.L.N.M.b.b.v.v.v.v.c.7.7.7.-.1.%.%.$.$.$.$.$.$.$.=.$.$.$.%.%.$.%.=.=.=.$.-.5.v.m.n.d.c.v.v.c.v.v.b.v.v.v.v.v.b.v.b.b.",
"N.B.P.P.P.P.L.N.M.b.b.v.v.v.v.v.c.v.7.7.4.%.1.$.$.$.$.$.$.$.%.-.%.%.%.$.%.$.%.=.=.$.-.c.n.m.m.f.f.b.b.f.f.b.b.f.b.g.f.b.b.b.b.M.",
"N.B.P.P.P.P.L.N.b.M.b.v.v.v.v.v.v.v.v.7.7.4.4.4.4.1.$.$.%.1.4.4.1.1.1.%.$.%.$.$.$.%.7.c.m.m.l.f.b.M.M.v.v.M.M.b.b.f.f.b.b.b.M.M.",
"B.B.P.P.P.P.L.N.N.b.b.v.v.v.v.c.v.v.c.7.7.1.4.1.1.1.1.1.1.1.7.5.2.1.1.1.%.$.$.$.%.%.v.v.m.M.M.z.M.M.M.M.h.M.M.h.x.h.h.x.x.x.M.N.",
"B.P.P.P.P.P.L.N.N.b.M.b.v.v.v.c.v.v.c.c.5.7.1.1.1.1.1.1.1.2.5.5.5.2.7.1.%.%.$.$.%.1.v.b.M.M.x.z.M.M.M.M.M.M.M.h.x.h.h.M.M.M.M.N.",
"B.B.U.P.P.P.L.N.N.M.M.b.v.v.v.c.v.v.c.c.7.7.1.1.1.1.4.2.2.2.c.c.5.2.2.1.1.%.%.%.%.1.c.b.M.M.M.M.M.M.M.z.x.M.M.x.x.h.h.x.x.x.N.B.",
"B.B.U.P.P.P.L.N.N.M.M.b.v.v.v.v.v.v.c.c.5.1.1.1.1.4.4.2.2.2.d.d.5.2.1.1.1.%.%.1.%.1.v.M.M.M.M.M.M.M.M.M.x.M.M.x.x.h.h.x.x.x.N.B.",
"B.B.B.B.N.B.N.N.N.M.M.b.v.g.g.g.v.v.c.c.1.1.1.1.1.1.2.2.d.d.2.2.2.1.1.1.1.%.%.1.%.g.b.M.M.M.M.M.x.z.x.M.M.x.x.x.x.x.x.x.x.N.B.B.",
"B.B.N.N.N.N.N.N.M.M.M.b.v.v.v.c.c.v.c.c.2.1.1.1.1.4.2.2.2.2.2.2.1.1.1.1.1.%.%.1.1.d.m.M.M.M.x.x.z.z.x.M.M.x.x.x.x.x.x.x.x.N.B.B.",
"B.M.M.M.M.M.N.M.M.M.M.M.b.v.v.c.c.c.c.5.2.1.1.1.1.4.2.0.2.2.2.2.1.%.%.%.1.1.1.1.d.d.m.M.M.M.z.z.z.x.M.M.M.M.z.z.x.x.x.x.M.M.B.B.",
"M.M.x.x.M.N.M.M.M.M.M.M.b.v.v.c.c.c.c.5.2.1.1.1.1.1.2.2.2.2.2.1.1.%.%.%.1.1.1.2.d.j.l.M.m.M.z.z.h.z.x.M.M.M.z.z.x.x.x.x.M.M.M.M.",
"x.z.z.z.z.x.M.M.M.M.M.M.b.v.c.d.c.d.1.1.1.1.4.1.1.1.1.4.1.1.1.1.1.%.%.1.1.1.4.2.n.m.m.m.l.f.f.z.z.z.z.M.M.M.z.z.x.x.z.M.M.M.M.M.",
"x.l.z.z.z.z.M.M.M.M.M.m.m.c.c.d.c.d.1.1.1.1.4.4.1.1.1.1.1.1.1.1.1.%.%.1.1.1.2.q.n.n.m.m.j.d.d.f.f.z.z.z.M.M.M.z.x.x.z.M.M.z.z.z.",
"l.l.l.l.l.l.z.z.M.M.b.v.d.d.c.c.d.d.1.1.1.1.1.2.1.1.1.1.1.1.1.1.1.%.%.1.2.2.q.n.n.n.n.j.2.d.d.d.f.f.m.M.M.M.M.M.M.M.M.M.M.M.M.M.",
"l.l.g.g.l.l.z.f.M.z.v.f.d.d.n.n.d.d.1.1.1.1.1.2.1.1.1.1.1.1.1.1.1.%.%.1.2.5.q.m.n.n.n.2.2.2.d.d.f.f.m.M.M.M.M.M.M.M.M.M.M.M.M.h."
};
