/* XPM */
static char *_6c07920c8664335e31aee1c1cb95a119ujBLaBOWQI7jfKX[] = {
/* columns rows colors chars-per-pixel */
"64 64 256 2 ",
"   c #582C7C",
".  c #673876",
"X  c #703272",
"o  c #6C1B7D",
"O  c #6E4C6E",
"+  c #6A5967",
"@  c #AB5B35",
"#  c #DC772E",
"$  c #B13456",
"%  c #AC1670",
"&  c #953174",
"*  c #B12D70",
"=  c #BF1B5D",
"-  c #D0124F",
";  c #CC2953",
":  c #CF0E6A",
">  c #CE3372",
",  c #EF1969",
"<  c #8C574D",
"1  c #AF4A4F",
"2  c #B16854",
"3  c #8D5373",
"4  c #B35572",
"5  c #916C71",
"6  c #AE6D78",
"7  c #90694B",
"8  c #CF5576",
"9  c #CD6F72",
"0  c #E05C61",
"q  c #CC183D",
"w  c #998C73",
"e  c #AF9266",
"r  c #D28E70",
"t  c #E49967",
"y  c #F7DB6D",
"u  c #362C95",
"i  c #1015B7",
"p  c #261BB0",
"a  c #1431B9",
"s  c #363AB7",
"d  c #2F2FAE",
"f  c #3A169A",
"g  c #581692",
"h  c #65188A",
"j  c #691896",
"k  c #751894",
"l  c #71118C",
"z  c #592687",
"x  c #592997",
"c  c #5A3999",
"v  c #4A2694",
"b  c #672898",
"n  c #772898",
"m  c #68379B",
"M  c #75379B",
"N  c #6A3188",
"B  c #4A1AA8",
"V  c #5827A5",
"C  c #4F34AE",
"Z  c #6838A5",
"A  c #7739A5",
"S  c #7233B4",
"D  c #6F1AB3",
"F  c #2E4E9A",
"G  c #134DB5",
"H  c #3053B3",
"J  c #1674B5",
"K  c #3769B9",
"L  c #3677B7",
"P  c #2B6FB0",
"I  c #4F4C99",
"U  c #744897",
"Y  c #6F4D93",
"T  c #726E95",
"R  c #5646A8",
"E  c #4555A6",
"W  c #5648B8",
"Q  c #4856B5",
"!  c #575AB9",
"~  c #4C4CAD",
"^  c #6846A7",
"/  c #7649A9",
"(  c #6958AB",
")  c #7857AA",
"_  c #6A47B5",
"`  c #774AB6",
"'  c #695AB8",
"]  c #7558B5",
"[  c #4966B9",
"{  c #5A67B9",
"}  c #5879B8",
"|  c #4F6EAE",
" . c #6869AA",
".. c #7879A8",
"X. c #6867BA",
"o. c #7668B7",
"O. c #6976B8",
"+. c #7776B8",
"@. c #716EAB",
"#. c #59799D",
"$. c #162FC8",
"%. c #3031CA",
"&. c #2017C8",
"*. c #4F17CE",
"=. c #6F14CF",
"-. c #5330CD",
";. c #7735C8",
":. c #6B2FCE",
">. c #6C2CE8",
",. c #1251C9",
"<. c #3252CF",
"1. c #146DCD",
"2. c #3968C8",
"3. c #3877C8",
"4. c #2F6ED0",
"5. c #3067E5",
"6. c #5749C7",
"7. c #4959C6",
"8. c #565AC7",
"9. c #5958D3",
"0. c #4A4CD2",
"q. c #6859C6",
"w. c #7859C7",
"e. c #6859D6",
"r. c #7856D5",
"t. c #7046CD",
"y. c #4969C8",
"u. c #5A68C7",
"i. c #4976C9",
"p. c #5877C8",
"a. c #4968D4",
"s. c #5667D4",
"d. c #4778D5",
"f. c #5978D5",
"g. c #6768C7",
"h. c #7666C7",
"j. c #6776C9",
"k. c #6866D4",
"l. c #7669D5",
"z. c #7278D3",
"x. c #656FE8",
"c. c #8D1887",
"v. c #B3168E",
"b. c #863899",
"n. c #8E2E8F",
"m. c #AD3194",
"M. c #AA19A7",
"N. c #9934A8",
"B. c #8838B4",
"V. c #8E2EB1",
"C. c #AD2EA9",
"Z. c #9A1CAB",
"A. c #CF1293",
"S. c #ED0C92",
"D. c #CB2E8F",
"F. c #EE16A3",
"G. c #CE35B1",
"H. c #E125A3",
"J. c #854697",
"K. c #975898",
"L. c #8F4F8E",
"P. c #AF528F",
"I. c #8F6F92",
"U. c #B06D8E",
"Y. c #8747A8",
"T. c #8656A8",
"R. c #884AB8",
"E. c #974AB7",
"W. c #8959B9",
"Q. c #9954AA",
"!. c #AD4FAD",
"~. c #8E6DAE",
"^. c #B06EB1",
"/. c #CF518F",
"(. c #C76B8A",
"). c #CC51AB",
"_. c #C66CAF",
"`. c #EE5E9E",
"'. c #8F19C8",
"]. c #8D30C9",
"[. c #AC31CB",
"{. c #971AE1",
"}. c #8946C4",
"|. c #9656C7",
" X c #8D53CC",
".X c #A952CF",
"XX c #8566D6",
"oX c #8E70D0",
"OX c #B26DC9",
"+X c #9567E6",
"@X c #C96ED2",
"#X c #D64DCD",
"$X c #2A87B9",
"%X c #338DBA",
"&X c #219CBB",
"*X c #4888BA",
"=X c #538FB6",
"-X c #6788B7",
";X c #728FB3",
":X c #50ADB6",
">X c #72A4B4",
",X c #778B9C",
"<X c #1690CD",
"1X c #3B85C9",
"2X c #3998C7",
"3X c #3896D6",
"4X c #2A8DCE",
"5X c #10B2D2",
"6X c #31ADCF",
"7X c #378EE7",
"8X c #2FB4E9",
"9X c #4886C9",
"0X c #5687C6",
"qX c #4986D7",
"wX c #5987D7",
"eX c #4996D8",
"rX c #5496CF",
"tX c #6785C8",
"yX c #6698D9",
"uX c #728CD4",
"iX c #4EAFD1",
"pX c #6DB0D1",
"aX c #4E90E7",
"sX c #7095E6",
"dX c #53B1E7",
"fX c #76B2EA",
"gX c #14C8D9",
"hX c #30CCD7",
"jX c #13D3E3",
"kX c #2FD0E4",
"lX c #27E9E8",
"zX c #17E8E6",
"xX c #4BCED6",
"cX c #6BCFD1",
"vX c #51CEE9",
"bX c #75C9EA",
"nX c #4AE7E2",
"mX c #74CFB9",
"MX c #948E95",
"NX c #ABA793",
"BX c #8B8DAF",
"VX c #AE8BAE",
"CX c #92AEB0",
"ZX c #ACA5A4",
"AX c #D4A690",
"SX c #93CEB3",
"DX c #ACCBA4",
"FX c #D7DB95",
"GX c #8F8FD3",
"HX c #AA8CCB",
"JX c #86AACF",
"KX c #8C8CE3",
"LX c #8FB1EB",
"PX c #AA9CDF",
"IX c #8ECDF1",
"UX c #9FDEE6",
/* pixels */
"V.!._._.^.w.t.*.;.D.v.m.%.%.0.z.z.f.7X4.0.-.:.qXeXqXa.*.=.].f.yXs.'.[.l.yXr..XoXyXr.D.| <.[.q.4./.J.x 9 4 V L.9 4 L.J.L.U R ~ C ",
"Z.^.VX_. X:.=.*.Z.A.* L.%.e.e.k.k.f.qXd.0.-.:.s.qXqXd.-.=.].k.wXf.:.[.XXyXk.[.|.yXe.G.U ,.[.}.1.P.P.B 4 9 M b 6 9 P.T.T.T.T.T.V.",
"'.^._.}.6.:.*.:.A.* * R.k.l.e.l.k.d.yXd.0.:.:.t.qXqXd.0.=.].w.f.f.:.]. XwXs.].|.wXs.[.b.,.].].1.) 8 V n 9 P.V n.6 P.K.) ) ) ` D ",
"].E.q.0.-.*.*.m.; > M.XXXXr.e.l.k.d.wXwX0.:.:.:.u.qXd.7.=.'.}.p.qXt.].|.wXf.].|.f.f.].N.a :.C.,.~ 8 n.g 4 8 b.b L.U.K.T.] ` B.'.",
"7.2.<.%.&.%.L.; D.C.l.oXXXr.r.k.9.d.wXwXa.-.:.:.q.i.i.y.:.=.}.u.9X6.].|.f.f.;.}.j.d.;.E.s -.'.7.G /.P.g L.9 P.M n L.K.) { 2.<.0.",
"4.1.$.i G L.> !.OXXXKXoXl.k.r.e.9.wXwXf.s.6.:.:.t.y.i.i.:.=.].8.9X8.].|.g.i.t.].g.d.;.}.s s '.6.,.K.4 b n 6 8 b.M M ) o.{ 4.1.4.",
"1.a p H K.).OXOXoXz.oXXXuXl.r.t.s.wXf.s.s.9.:.-.;.8.2.i.6.D B.q.i.u.;.}.g.d.t.}.h.3.t.}.Q s ].t.,.( (.J.V P.(.P.J.U ( ! y.4.4.4.",
"H R ( E.OXOXOX|.l.GX+XKXz.r.r.t.k.uXf.a.u.g.:.;.].q.2.2.0.=.B.W.i.y.;.}.g.9X6.}.h.3.6.].8.s ;.;.1.Q U.L.Z b.U.P.P.) @.{ 2.4.4.1.",
"U.E.]..XOXOX.XXXGXoXKXuXXXXXr.e.XXl.f.u.q.' S B.V.R.{ } 7.=.;.] } i.:.E.h.i.8.}.h.1X8.;.u.H S ;.4.H I.U./ A P.U.P.~.X.X.y.2.u.~.",
"R.=.].OXOX|.oXGXoXKXKXXXXXXXr.l.XXr.f.w.] ' _ S V.B.' O.O.S S t.i.p.t.w.h.1X8.t.h.9X7.t.u.H W ;.2.1.@.U.T._ J.P.Q.~.g.i.2.u.~.U.",
":.=.].|. XGXGXKXoXKXoXoXXXw.k.l.t.e.g.h.' ' ' B.V.N.)  . .Y.Q.W.i.3.` W.g.0Xy.t.h.9Xa.t.u.H Q ;.y.1.X.~.T._ A Q.~.oXq.2.7.+.VX] ",
":.;.r.l.GXGXGXoXoXoXoXXXXXj.z.k.e.q.q.j.j.j.+.B.V.N.~.-X-XT.!.^.;X9X0.|.oX1Xp.q.h.9Xd.9.f.4.[ t.s.<X2.~.~.` ` ] ~.h.y.2.u.^.W.:.",
"j.tXuXGXGXGXKXXX|.|.h.w.j.tXk.g.u.6.q.p.0X0XtXo.V.R.u.<.2.-.S Q.BX;Xg.9.oXrXd.w.z.eX3X9.f.3.2.s.9.<X1.O.o.R.] p.p.u.2.i.O.O.s.u.",
"uXuXGXGXGXuXl.|.|.w.w.g.j.j.g.p.8.8.q.u.9XrXrXp.R.] 7.<.<.%.*.-.i.-X~.W.p.rX0X9.z.3X3X9.f.4X3.i.9.4X<X9Xj.R.u.0Xi.y.i.+.+.d.wXtX",
"uXGXGXoXk.e.|.W. Xw.g.j.g.g.p.u.' X.q.y.1X9X0Xp.q.W.j.3.2.<.-.-.<.1.u.!.~.3X9Xg.j.eX3Xa.f.4X3.p.a.3.<X4X0Xz.z.d.y.i.O.+.p.p.tXtX",
"GXuXl.q.6.E.Q.W.` g.j.h.q.u.X.X.u.q.q.o.0Xi.9Xp.8.h.tX=X=XW *.-.<.,.<.0.~.;X3Xq.j.eX3Xa.d.4X3.9Xd.3.<X<X1XtXt.y.u.+.o.p.tXtXtXuX",
"u.6.S :.}.Q.W.` X.j.h.g.g.X.X.' ` ` ' o.-X-X0Xi.8.' j.>X>X+.S -.<.2.<.%.2.0XtXa.g.eX3Xd.a.3X1X9Xp.3.4X4X4Xd.t.q.O.~.u.y.y.u.p.u.",
"-.S -.;.E.R._ X.o.X.q.g.X.X.O.O.u.8.q.R.o.;XBX-X! W { =XCXBX~.( K >XK.B.8.<X9X Xi.9X2X3.a.3X<X*X9Xi.4X4X<Xd.o.~.+.u.y.7.7.7.7.6.",
"S -.:.B.` ' o.o.' ' X.X.o.X.j.p.y.u.8.! X.~.BXBX~.( ! [ -XMXI.BX} >XK.v.P.O.4X2.h.eX2X1X2.1X<X%X=Xp.4X4.<X} Q.~.u.8.7.Q 7.6.6.6.",
"S -.S _ X.o.o.] ' ' ] o.X.X.X.X.u.y.2.2.2.3.} ..I.I.I.| [  .I.MXBX=X;XK.v.P.~.y.2.j.2X1X3.1X4X<X=X=X*X3.L  .Q.y.u.{ ! W W W C S ",
"C _ o.o.o.] ] ] ] ] ] ] ` ' g.g.' ] ` / ( [ K K Q ) U.NX,XR ^ I.NX>X| =X~.m.m.Q.u.1X0X1X3.3.4X<X4X*X*X%XK { ' { X.X.X.' _ S _ W ",
"] o.] ] ] ) ) ) ) ) Y.] ' ' R.B.Y.Y.Y.Q.~.~.BX..Q s ~ I.e w ^ C MXNX,XK *X;Xm.v.N.O.2Xi.3.3.4X<X<X1.2.4X2.! { X.{ X.' ' ] o.} X.",
") ( ) ) / / ) T.T.] ' ` R.W.X.p.0Xi.y.y.! { ..I.I.I.Y ~ R MXe I.Q #.MX..K 6X-XY.A Y.@.%X3.L 1X4X<XJ J K J 2.{ X.' ' ( ] ( X.( _ ",
"/ / / ^ / / ) X.X.] ` o.j.0Xp.g.' _ _ _ W Q H H ~ Y I.w I.c m 5 w | K I...$X<X2X3.6.'  .L K L $X$XJ J P P K ( ( ( ( / ' ( ) ^ / ",
"/ / ^ / ) ] ] / ` X.p.u.` V.Z.M.C.C.N.N.N.P.P.L.U c C R I.e 5 c Y w T H  .I.L <X$XK <.[ ! [ L L L J J P P Q ^ R ^ / W ^ / ^ / / ",
"^ ^ / ( ] Y.Y.O.tXh.V.M.M.N.R.o.j.p.p.y.y.[ [ ( Y 3 3 3 Y N O 5 3 I Y T E E T | J | | H H K [ L P P J P P R ^ ^ Z C C M Z ^ ^ ^ ",
"/ / / B.Y.O.tX] Z.M.C.W.j.yXyXwXj.g.' ] / ^ R R ~ d v N O < + . . 3 Y I Y I E ( ( P | #.K G H K P P J P P ^ Z Z Z V m Z Z Z ^ ^ ",
"A S ` u.p.` Z.M.N.h.wXyXuXl.h.XXW.E.N.N.N.n.n.n.& & & X . . O O X . . N z c Y I I ^ E E  .E P H K P P J P ^ Z b b m Z m Z ^ ^ ^ ",
"W y.u.S Z.M.N.h.yXuXoX X XXXW.E.B.B.B.S S Z V B f f v N X < < O . X X N z z x x c c c I E E I E E F P P H m b b m m m ^ ^ Z Z Z ",
"! B.M.M.C.R.z.oX|..X.XXXj.E.Z.M.C.C.m.m.v.v.v.% % & & X X . O O O X .   z z z z z x x x m c I R I E F P E R c m m m Z Z Z R Q [ ",
"v.v.D.G.j.sXGXoXXXXXl.eXE.A.A.A.m.N.N.A _ W ~ s d d u z . O < < + . .   z z z h h h h h x x b x x b x c c I E R R ~ Q Q Q [ / Z.",
"} 0Xp.w.8XxXxXkXkXdXuX>X^.C.Z.Z.V.V./ ' ` A n.c.c.& X X . O . + + O .       o h h h h h h l h g j j b k c P P P P K K K P L | | ",
"5XgXgX8X8XjXjXjXhXhXiXiX0Xp.] N.A.v.) ` S S Z V V V v z X X < < < + O .     z z h g h h g h h l j g j k c P P P P P P L %X&X5X5X",
"5XgXgXjXjXkXkXlXhXgX5X<X=XBXI.K.b._ 2.6.C C C V V g g f u u u F + + O O .   o o o o h l h g g B x k j n R E P P P $X$X$X$X%X2X6X",
"6XhXjXjXlXlXkXkXgX6X:X:X=X,X} [ W Z R A A A b.n.c.c.% % $ $ 1 @ 7 7 + O   u u u u v v g h l b x c.j k n E ^ L $X$X&X&X%X6X5X6X6X",
"gXkXkXlXlXlXkXxXiX:X:X:X$X%X,XT 5 4 Y R ~ ~ ~ ~ s s d d p p u v O + < < 1 1 $ $ $ $ % % % c d c.l j b n E U | $X%X%X&X6X6X6XgXgX",
"zXlXlXlXlXlXhXiXpXrX3X4X*X#.I.I.T ^ H ,.s C C Z A n.k k h v u u F F F F d d u u f u I 3 R i c.l l j n Z | U ! %X%X%X%X6X6XgXhXgX",
"kXzXlXkXvXkXhXiXiXrXtX-X} } [ Q ! T Y U c.c.n.b.L.m.% % : : = $ $ 1 7 + + I G i i H T 3 p g c.j k j n ^  .b.{ } *X%X2X6X6X6XjXkX",
"kXvXzXlXxXpXiX6XiX;XBXBX0X9X[ ! K.6 2 3 J.M Z ^ ( ) / / A b.n.* $ $ @ @ @ e w I #.6 ; b p & j k j n M ( O.T.i.O.=XrXiX6X6XhXiXzX",
"zXnXpXkXhXiXpXuXrX=X-X;X~.O. . .) K.Y c a a s Q 8.X.X.! 7.<.<.H E L.1 2 e e w I 5 $ $ p k n.j k n n M ( =X9Xa.o.-XrXiXiXiXhXkXdX",
"dXzXxXJXiX6X>XBX;X=X} ..~.~.X.} } O.C I I c n b S ` _ _ W 6.7.H ,.1.| w NXT g u 2 1 N p * x n n n M A @.%X:X0.E.+.rXiXpXkXpXkXnX",
"cXyXgXiXGXrX2X;XBX~.O. .~.~.~.j.X.] Q.4 2 4 * v.v.m.m.V.D W y.2.J <X%X>X,Xs f I 2 1 d N & b n.n M b./ ..%X5X0.M.!.iXGXvXpXlXfXlX",
"jXpXuX5XpXVX-X*XBXU.~. . .~.~.Q.] T.Q.m.0 2 4 * v.v.M.Z.D C K 4X<X&X:XMX,Xa p + # < i 1 b n M n M b.) O.;XgXrXA.A.dXGXvXbXvXnXJX",
"rXgXGXtX6XBX^.@. .I.U.~.( ) K.!.Q.) ` Q.I.I.T  .T.N.M.N.' y.1.<X2X&X;XU.P.,.i + # O d 1 B n.m b.J.Y.o.9XBXhXpXS.S.dXJXPXnXPXkXpX",
"HX3X6XVXO.%XMXU.@. .I.U.K.Y.Y.Q.~.+.+.BXj.s d ,.1.4X0XW.W.2X5X6XiX9X] v.m.<.i 3 # I I 2 B J.M J.J.) ~.-X>XJXxXG.S.fXfX@XvXJXuXhX",
"uX^.<X;X^.{ | VXU./ J.U.P.T.] ~.VXVXoXoXGXQ f s 1.<X5X5XrXiX5X6XpXwXS A.m.a.&.4 # s 3 3 x L.M / J.T.O.BX6XZXJX_.F.fXfX).uXdXOX3X",
"<X^.o.1.^.U.! ) (.P.A J.U.U.~.W.~.~.W.w.g.u.H B H %X6X6XxXxXgX6XdXyX;.C.C.f.%.> 0 a 7 O N L.M ) T.~.-XVX6XcXUXcXLX+Xx.H..X8X^.oX",
"<X} ).[ [ (.K.Z P.(.K.] ~.U.Q.` B.E.N.;.*.q.ZXMX( L :XmXmXSXhX5X3XwX}.!.!.uX9.> 8 $.2 O U 5 U T K...BXCXpXjXUXlXdX{.>.F.F.7Xz.).",
"' 1.^.!.H K.(.b.Z U.(.T._ Q.P.!.E.E.N.'.:.-.BXDXDX..;XSXDXDXCX5X4XqX|.G..XsXl.A./.$.2 L.L.5 U T L.-XVXiXAXjXnXnXkX>.>.S.S.f.d.).",
"G.1.( /.^ C U.U.A / U.P.S Y._.).E.].].'.:.<.eXSXSXCXO.DXFXFXy :X1.5.|.F.G.LXKXA.G.5.8 L.Y 5 U I.K...ZXiXDXSXzXhXgX5..XS.S.w.4.!.",
"S.Q G /.P.s J.9 L.V K./.!.S E.^.W.k.k.l. X>.5.cXcXSX>X-XFXFXy AX1.,.X.F.F.PXLXG.G.d./.K.I e Y 6 ..MXCXCXiXFXcXnXcXJXH.S.S.R.<.N.",
", b.$.L.8 M V 4 8 A S P.!.w.j.HXPXJXbXbXLXsXx.dXnXcXxX4XSXFXFXt 9X$.Q 0 S.PXIX#XG.sX).P.Q r ~ r } AX9XAX6XSXAXpXcXZXD.S.S.t.$.V.",
": v.i b 0 m.B L.8 N.-.W.VXVXuXuXPXPXfXbXfXfXdX8XnXnXhX5X6XDXAX`.JX1.<.t 0 HXIX@X#XfX)./.2.0 ! r } r -XNXCX2XDXZXJXCX(., D.-.&.n ",
": : p B 8 ; j V /./.q.u.^._.GXyXGXPXLXvXdXdXdX8XkXkXgXgX8XfX.X[.+XbXaXAX# VXfX@X#XLXOXH.d.9  .6 I.MXNX-XAX9X>XDXCXJXVX/.` &.$.n ",
": : p d $ - n p K./.W.2.h.^. X4.d.z.KXfXvXdXaX7XdXdXjXkXvXfX>.{.+XUXUXOX0 r aX.X#XLXPXF.wX(.K.T r  .t [ AXNX1XCXCX>X9X1.&.%.,.c.",
"- - d F & - n.%.^ /.C.<.%.V.'.-.5.<.5.aXdXdX3X7XeXGXdXkXbXIX>.{..XLXUXKXH.0 1.r.F.PXLXF.l.~.(.K t ! t MX..t BX*X,XBX-XH i a s : ",
"- ; F P & - m.$.d v.A.:.%.=.'.;.a.5.<.4.7XdXeX4XqXGXz.vXIXIXx.{.[.KXUXLX.X`.<.<.F.@XIXH.|.j.0 <.r I.I.t Q NXAX..O... .~ i G & - ",
"q * G J n.: m.&.&.C.G.B.0.:.'.;.0.5.2.a.qX3XyX7X5.uX Xz.bXIXsX=.[.+XIXLX.X@Xs.$.H.G.IX#X).qX0 ! I.r R t I.( AXAX....I.Y Y 4 ; - ",
"- m G J n.: D.-.%.N.).E.9.9.;.].:.<.<.i.0X3XdXaX5.k.r.>.fXIXLX>.{..XLXLX+X@XKX4.* F.LXOXG.7X/.K.Q t ^ U.r R I.AXU.I.I.U.9 0 ; - ",
"* a G s v.D.D.6.-.B._.|.f.wXl.|.w.<.%.{ p.qXeXdXd.<.-.=.x.fXfXr.{..XKXIX+X@XHXsXL., KXKXG.f.W./.H r U.m t I.R U.AXU.I.U.6 9 ; - ",
"p a G V D./.!.6.-. XHXHXf.qXh.E.W.3.,.<.a.d.eXdXaX<.*.=.t.yXfXx.{..XoXLXXX.XOXfXBX, oXsXG.XXi.`.~ I.r V 6 r U U U.U.U.U.U.8 > n.",
"i a %.m././.E.9.9.oX^.^.s.4.8.K.T.y.1.5.<.d.eXeXyXa.*.=.=.wXfXsX>.[.XXfXsX.X@XsXKX> P.aX[..X4./.T.~ t J.m r 6 ^ U 6 U.K.) ^ s i ",
"i &.S /.)._.w.e.t.|.^.!.s.<.[ I.) d.7X4.%.0.qXeXeXwX-.=.=.e.yXyX:.]..XsXsX XOXGXsXD.8 7X X[.4.Q./.d 9 9 V U.9 L.M b.L.L.U R d a ",
"&.S )._._.^.e.t.:.!.C.m.<.$.[ W.z.d.7X4.<.-.s.eXeXwX0.=.=.t.wXyXe.]..XuXyX X.XoXsX[.8 3.e.[.2.' 8 C L.9 M m 9 9 L.J.U U Y R s a "
};
