/* XPM */
static char *_4795e978f134690f57c7079d23e2fcbufVYUOr8ixrbtdma[] = {
/* columns rows colors chars-per-pixel */
"64 64 201 2 ",
"   c #12080F",
".  c #150710",
"X  c #150B12",
"o  c #1A0D16",
"O  c #1E0A19",
"+  c #1C1017",
"@  c #1D121A",
"#  c #210B1B",
"$  c #201017",
"%  c #23141C",
"&  c #29161D",
"*  c #26181E",
"=  c #2A191E",
"-  c #301A1F",
";  c #260E23",
":  c #231620",
">  c #2C1523",
",  c #251922",
"<  c #2C1C23",
"1  c #2C172A",
"2  c #2C1E2A",
"3  c #321D23",
"4  c #391E27",
"5  c #311E2A",
"6  c #2D1D31",
"7  c #2F2027",
"8  c #27212C",
"9  c #2D222A",
"0  c #322126",
"q  c #3A2227",
"w  c #34242B",
"e  c #3B252B",
"r  c #36292E",
"t  c #3A292E",
"y  c #2F2630",
"u  c #2E2935",
"i  c #342637",
"p  c #342A33",
"a  c #3D2C32",
"s  c #342B3B",
"d  c #392E38",
"f  c #2A303F",
"g  c #373135",
"h  c #3D3135",
"j  c #34323D",
"k  c #3C333B",
"l  c #3A383E",
"z  c #43262B",
"x  c #432A2D",
"c  c #4A2B2E",
"v  c #50302E",
"b  c #412E33",
"n  c #4B2D31",
"m  c #502F33",
"M  c #433135",
"N  c #4C3234",
"B  c #413837",
"V  c #443539",
"C  c #4A363A",
"Z  c #443A3C",
"A  c #4C3B3D",
"S  c #533336",
"D  c #583537",
"F  c #533639",
"G  c #5A3639",
"H  c #543B3C",
"J  c #5B3B3C",
"K  c #613D3D",
"L  c #45423D",
"P  c #54413F",
"I  c #67413F",
"U  c #372E42",
"Y  c #2F3444",
"T  c #353442",
"R  c #3A3542",
"E  c #393845",
"W  c #343C4A",
"Q  c #3B3C4C",
"!  c #403640",
"~  c #443C43",
"^  c #4E3D40",
"/  c #433E49",
"(  c #513E41",
")  c #5C3F40",
"_  c #643F40",
"`  c #3E404D",
"'  c #3E4353",
"]  c #4C4343",
"[  c #4A4744",
"{  c #44434D",
"}  c #4C444B",
"|  c #544345",
" . c #5A4344",
".. c #514847",
"X. c #554649",
"o. c #594648",
"O. c #534D4A",
"+. c #5B4A4A",
"@. c #53514C",
"#. c #5D514F",
"$. c #434554",
"%. c #424854",
"&. c #444B5B",
"*. c #494B58",
"=. c #524C53",
"-. c #584D52",
";. c #4A535E",
":. c #5D5252",
">. c #545856",
",. c #5F5D54",
"<. c #555459",
"1. c #5E565C",
"2. c #5E5C5C",
"3. c #644343",
"4. c #6B4544",
"5. c #634847",
"6. c #6B4947",
"7. c #664748",
"8. c #654C4B",
"9. c #6B4B4A",
"0. c #704845",
"q. c #714D4A",
"w. c #63544F",
"e. c #6C524E",
"r. c #73514E",
"t. c #735C4E",
"y. c #635453",
"u. c #6C5453",
"i. c #655A54",
"p. c #6D5957",
"a. c #655A5B",
"s. c #6B5C5A",
"d. c #755652",
"f. c #7A5652",
"g. c #7B5B56",
"h. c #755D5A",
"j. c #5B625C",
"k. c #626559",
"l. c #6C635D",
"z. c #71615E",
"x. c #79605D",
"c. c #464F60",
"v. c #475262",
"b. c #4A5667",
"n. c #4D5A6A",
"m. c #4F5F70",
"M. c #635E62",
"N. c #6E5E60",
"B. c #526D6A",
"V. c #516273",
"C. c #587478",
"Z. c #696364",
"A. c #6D6A61",
"S. c #6B6569",
"D. c #68656A",
"F. c #746361",
"G. c #7B6766",
"H. c #736A65",
"J. c #7C6D6A",
"K. c #6D7365",
"L. c #697867",
"P. c #727368",
"I. c #7C746D",
"U. c #74796C",
"Y. c #6E6F75",
"T. c #706D70",
"R. c #787275",
"E. c #7A7C72",
"W. c #78777A",
"Q. c #7B7B7D",
"!. c #815955",
"~. c #825F5B",
"^. c #84625D",
"/. c #876D67",
"(. c #82726D",
"). c #847974",
"_. c #8B7D7B",
"`. c #927C7F",
"'. c #798274",
"]. c #8C817E",
"[. c #88857D",
"{. c #7C7E81",
"}. c #7F8184",
"|. c #838585",
" X c #8B8881",
".X c #858A8B",
"XX c #898C8C",
"oX c #948685",
"OX c #8D948A",
"+X c #8B9294",
"@X c #8F9799",
"#X c #949B9A",
"$X c #939B9C",
"%X c #A7A69C",
"&X c #979FA1",
"*X c #96A0A2",
"=X c #9AA4A5",
"-X c #9BA7A8",
";X c #9EAAAA",
":X c #A1ACAC",
">X c #A5B2B0",
/* pixels */
"< 0 0 0 0 = = < 2 0 0 w a a a a t a a t t t r 0 * * 0 0 < $ @ * w a V L V ....a a b a a t t t t M l.%X%X[.I.H.:.a.).y.e N y.y.| ",
"0 0 0 0 w 0 0 w w w r t t t r w w e t w w 0 2 w < < 0 < * = q 0 = 2 r t r a a t t t t r t e e e r C :.:.y...A a V :.| t H z.J.i.",
"< * = 0 t t t t t a a w w 0 2 = = 0 0 < * % % 3 w 0 < * = F q.9.e * w a t e 0 0 0 w e x S q 3 0 w b ( u.8.M w w w w w e C N.J.| ",
"< , 2 r t e 0 w t r w 0 w w 0 * * = % < * $ = w e 3 & $ 3 G 6. .x & 3 r e w 0 w w z v c x < < 7 w w C o.C a r r r w w w M :.Z.| ",
"w w t e < = $ < 0 < * % < w w * % = % 2 2 < w t e < * $ = x G J N = < 0 w w w t J t.A.[ g w r r r w r e w w < 0 3 2 w w w a V h ",
"t t M A 0 * * 2 0 = % % = < < % % 3 w w w r e 0 < $ % * = N J 6.J 3 = 7 w w w w N j.B.] a r t r w w w < < < * < = * < < 3 w 0 w ",
"e w t X.t = < < < 3 % + % * % * 0 t a a a e 3 3 e x q < & q z F c 3 & w a a a a M Z Z M r 2 0 0 < = < < < 0 w w a Z V 0 w 0 = = ",
"e w e b < w t 0 < 3 < % * < 2 r t x b b b 3 < < J f.6.e $ 3 z S S - & e N C C C H  .| C d < = < 2 0 9 < < 0 r a A s.y.r 9 2 < * ",
"< < 3 e < w t w < 3 a C V M t r e b C b t 2 & = S 6.3.e $ % q F F = & 3 F  .C F g./.d.H j p a V A A s 9 9 w t a A i.8.e w r a a ",
"* * e M t 0 0 w 2 3 w ( | ( M r w e r 0 3 2 & & S F c 3 $ o & q n q = 3 F N x G d./.g. .%.;...o.o.] l d T W j Z Z ~ ] d j j ~ ( ",
"2 < b C C M w w 0 < 2 M A V a w r e e e 0 < < = S 6.J < $ o % c G n 3 q n c e J 9.g.d.3.>.C.<.o.+.o.| C ~ W f j k d Z ^ ~ Y T ^ ",
"b t t M b r w w w 0 < < 2 < < < q e 3.g.6.q < q N F z & % $ = n 3.K c z N x c 6.q.q.~.r.A l g d d a t w w y 8 , 9 a M C C p 9 w ",
"V a r t 2 < < 2 w w < < < < 2 0 3 e  .g.f.N < e G n & & % $ 3 F q.q.J H o.C n J S F 7.9.H M a 9 9 2 , , % , , , 2 w w < , , * , ",
"A A ( ( A A A A A A A A A A M 3 q J 7.9.G e % 3 z = % 3 3 & & F q.d.i.p.G.w.M G J ) q.J 3.7.7. .V M a a t t a h h a t t t t t t ",
"| | o.o.o.o.o.o.o.o.o.o.o.| t & e J 6.q.6.e $ & & % = 3 n z 0 8.I.).I.I.].I.P x ) 9. .5.3.G P 9.| | | | | | o.| | | | | | | | | ",
"o.o.o.o.o.o.o.+.o.o.o.o.o.( 3 $ e N G S N = $ % % 3 ^ C S S A U.OX]._.OXOX[.u.b c N S e.3.x N o.r a | | | | o.o.| | | | o.| | | ",
"| | | o.| | | ^ A ( | | H M 3 $ q J J S 3 $ $ & 0 | |.+X+.D N k.K.).oXoX XoXJ.H x G N H 8.e w a , % a ( | | | ( | | ( | | ( ( ( ",
"A A ( ( ( ( A C V A V r 2 3 < $ 3 S G S 3 $ $ < C H.#X>XQ.J K +.P._.`._.'. XI.] t x 0 < | C % @ @ @ * M ( ( ^ A A A A ( A A A A ",
"A A ( | | | ^ A A A t % * 3 < = q N F K J q $ 3 +.|.=X:X|.J 4.9.K.E.).E.E.U.k.B < * $ @ M M % o o @ @ < M A ( ( A A A ( A C A A ",
"| | | | o.o.| | | A 2 @ * < < 3 3 x N N b 0 * w Z.OX;X:XXX) I r.w.k.s.H.'.L.L.Z * % $ + * 2 @ o o o @ @ < V ^ ^ A A A ( ( A V C ",
"o.+.o.X.o.+.o.o.o.A , @ * < < < * @ % % % : , r S.#X;X:X#Xy.D q.6.o.l.E.P.E.A.A % % % % % @ @ @ o X o + @ r ( | | | | | | ^ A A ",
"| | | o.o.+.o.| | M @ @ * 3 = * $ @ @ @ % : : , 2.$X;X:X-XQ.F K q.+.A.).J.H.i.+.< @ 0 H 3.H M b t t M t @ , V ^ | | ( ^ ( ^ A A ",
"a M A A ^ ( A A A w + o $ < & $ @ @ % % % @ % % 1.&X;X:X;X$X:.c I r.F.).(.a.H.s.< * F 9.d.d.r.e.e.9.3.C * o r A A A A A A ^ A C ",
"a a a b b b M V M , o o @ % % @ @ @ % % @ @ % , S.*X;X;X;X-XQ.t c 3.r.x.J.U.E.#.< $ t J ) N x b N N x t * % t C C C A A A A A C ",
"t r r t r r r t w % o @ % % @ % : , % + o @ % w {.=X;X-X-X-X+X~ q S 4.r.u.F.H.o.w + % 0 = o X o + % * w r r a a a b b b b b M a ",
"r r r r r r w r 9 @ o @ @ @ * < < 3 < % @ @ @ d .X*X-X-X-X*X$XM.r z D 0.r.G.A.+.B * o o X o o o o + @ < r r t a t a a a a a a t ",
"a a a a a a a a 2 @ o o o @ < * * < < < < % @ ~ .X$X*X-X-X*X#XR.H b x G q.d.i.@.O.h @ @ % o + @ , 9 9 9 w w a a r t a a a a a a ",
"t t t a a a a a 2 @ o + X $ = $ < 3 e e < % % =.+X#X*X*X&X$X@X}...^ a e G q.e.,.A.o.a A o.V < d d 9 w d p w r r r r t r t a a t ",
"a a a a a b a a w @ @ x 0 & < c 3.q.f.d.b % , M.+X@X+X.X|..X$XXX:.8.o.V t S 6.e.z.p.+.z.(.J.+.p p s ` *.*.k r a a a a a t t a t ",
"a a a a a a a a r % % G 3.c 3 F q.f.f.r.J < 9 M.Q.}.W.S.Z.Q.$XXX2.y.s.:.Z e N 6.8.p.8.u.G.(.J.} T Q Q Q &./ r r t t a a r r r t ",
"a a a a a a a a a < % H 9.F q S N G K n F 3 d a.S.S.M.Z.T.}.#X|.>.,.,.+.+.A V  .8.d.^.^.g.e.u.a.Q Q Q ' &.;.k r t a a a a a a a ",
"a a t a a a a a a r r ) 3.F n G G J 3.3.6.c a O.-.M.S.{.|.|.+XQ.o.:.k.i.y.| V C H r.~.^.^.e. .8.*.Q ' &.v.n.~ a r r r t a a t t ",
"a a a a a a a a a a a F F n m J 3.G D _ 3.x ~ 1.:.M.Q.{.+X+X+XR.y.y.O.[ ] o. .A N G 6.G r.g.7.5.-.Q Q ' c.n.{ w 7 w w r t t a a ",
"b b a a a a a M b a M n n q e n S n S F n < Z =.} } Z.{.}.}..XS.O.A M ] ] M a A C G r.q.!.!.q.e.y.Q Q %.b.V.;.a w r t t a a a a ",
"a a a a a a a M M M a 2 0 b x q n D K J q $ % : , , w <.Y.S.=.g 9 < : , : % a ^ C S 3.6.3.q.3.e.p.=.Q %.b.m.n.k t t a t r r a a ",
"a a a a a a a a a a r % b 9.F q 0 e x e = @ @ % : , : , 9 9 : @ @ % % @ @ 2 A C b x F 3.3.3.S 8.h.a.Q Q &.b.b.~ a t t w w w r a ",
"a a a b a a a a a a w 3 J 6.b 3 q 3 3 q % @ @ @ % % @ @ @ @ % @ + @ @ + % V | M M x n 3.6.J N 5.h.F./ E %.v.n.$.b b a a a a a a ",
"a a a a a a a a a a w 2 e J t % q z z z $ @ @ @ % @ @ + + @ @ + X o @ * w ] A C N x z N S D c H p.p.a i Q &.b.*.V b b b a a a a ",
"a a a a a a a a a a w % * q 2 @ $ q c z % @ @ @ @ @ @ o o o o o @ < w b ..V > w w e q e n F z M | b : ; 1 s &.v.Z a a b b b a a ",
"a a a a a a a a a w , : % % @ o X % c c * @ @ @ @ @ @ % % @ @ , w r h X.| : O O # $ & z c n x 0 % O # # # ; U &./ a b b b b a a ",
"a a a a a a a a r < : : : % + @ + o = z & @ @ @ @ @ < a V t 2 7 r a A ] w O # # # O # z S S G 3 O # O # # # > Q { a a a b b b b ",
"a a a a a a a a 9 , : % % % + @ @ @ @ * % % @ @ @ @ , w a a a a V V V a # O O O # O O 4 _ 3.G & O # O O O # # 6 $.V a b M M M M ",
"a a a a a a a t , % % % % @ o @ @ % @ o @ @ @ @ @ + X * a Z [ @.@.O.Z 5 O O O O O O O % S K z O O O o O O # # # s ! a a a a a M ",
"a a a a a a b r : % @ @ + o o o @ @ @ o @ @ @ @ @ + X % r g L @.y.:.Z % O O O O O O O O q J 3 O O O o O O O O # ; i a a t a a a ",
"a a a a a b a 2 % % @ @ X X o o @ o @ o o @ @ @ + o X < a w r r t t < O O O O O O O O O > n & O O O O o o O O # # 1 a a a a a a ",
"a a b b a a p , % % % @ X X X o o @ @ o o + + o o o X 0 M r a t < $ O O O O O O O O O O # > # O O O O o o O O O O > d a a a a a ",
"t a a M M M 2 % % % % o     X o + @ o o o o o o o o o w V t h h r % O O O O # O o O O O O O O O O O O O : O o O O # 2 a a a a a ",
"a a M M M a < % : % % o     X X o o o o X o o o X o o w C a a a t # O O O O : % o O O O O O O O O O O # < O O O # # # w a b a a ",
"b b b M M a , : % % @ X X X X X X X X X X o o o o X X < V M r w : O O O O O 5 w o o o O # O O O o o O % e 3 # O # # O : a b b a ",
"a a b a b r : : % @ o + + X   . X X X X X o o o X o X o a V t > O O O O O # a t O o o O # O o o o O e ) 7.J > O O O # # 5 a a t ",
"a b M b a < % : % o @ % @ + X . X X X X X X o X o o X X 7 V a % O # O O O % e < o # o O O o o O O e 7.9.F N > # # # O O < a a a ",
"a a b M t % : : % o @ @ @ @ + X X X X X X o X o X o o o , a w # O # # # # & & X X $ < 3 3 3 3 3 b 3.e.N # $ # O O O O # w a a a ",
"a a a a r : : , % o + @ o @ @ o X X X X X o o X X o + + % 2 > O O O O O O $ + X X X o $ $ @ $ q 3.9.) * . X o o O O O : R k t t ",
"a a a a r , : : % o o o X o o o o X X . . X X o o + @ @ o O # 3 > O O O O @ o X X X X X X X $ F 7.3.e X X X o o o O O @ 9 d a a ",
"t a a a r : % % % X X o X X X X o X X X X X o o o o + o o O e 3.b # O O @ @ @ o o o X X X X 0 F J N = X X X X o O O o @ @ 8 a a ",
"r r t a t , % : @ X X X o X X X X X o X X X o o o o o + o < J 6.n # O O @ @ @ @ + o X X X o < e b < o X X X X X o o o @ @ u k a ",
"w w w r w * : : @ X X X X X   X X X X X X X X X X o o o * F 9.9.n # o o @ + @ @ @ o o X X X X % % o X X X X X X X X o o @ T R a ",
"w r a a r , % % @ X X X X X   . . . X X   . X X X X X @ q ) 9.9.N O o o + o + + + o o X X . X . X X X X X X X X X X X o @ j Q a ",
"r r r r w , < q < o X X X o X                       . @ < b F N x o X o o X + o o X X X X .     X X X X X X X X X X o o % u E d ",
"w w w w 2 < c D c + X X X < 9 , o     o $ @ % @ X     X $ 3 q 3 < X   X X X + o X X X X X     . .   X X .   X X X X o + 8 u j l ",
"r r t r 0 e F G n $ X X @ w p p % X . % 2 0 9 * $ X X X X $ & o X o X X X X o + X X X X X . X               X X X X + @ 8 T Q / ",
"w w r b N n J J S = X X @ w w 2 @ X X * w 2 % $ = o         X . X * @ X X . o + X .   . X @ % o X X o + X X X X X o @ @ , u { M.",
"3 a H ) N n J J D 3 X X o * * o X X X * 7 , @ @ = $ . . X % @ X X < % o X   o o o + @ % , 2 w 9 9 , 2 p 2 @ X X X o * < , 9 :.[.",
"t  .7.J x x D D D q o o + % o   % + . @ < * @ o $ o X X < w % X o , < o X   o o o * < < 2 w h ^ ] a V Z w % X X o o < 0 2 w :.E."
};
